<?xml version="1.0" encoding="UTF-8"?>
<svg id="Layer_2" data-name="Layer 2" xmlns="http://www.w3.org/2000/svg" viewBox="0 0 400.5 458.33">
  <defs>
    <style>
      .cls-1 {
        fill: #36365d;
      }

      .cls-1, .cls-2, .cls-3, .cls-4 {
        stroke-width: 0px;
      }

      .cls-2 {
        fill: #50508e;
      }

      .cls-3 {
        fill: #040405;
      }

      .cls-4 {
        fill: #f1f2f2;
      }
    </style>
  </defs>
  <g id="Layer_1-2" data-name="Layer 1">
    <path class="cls-2" d="M6.75,233.99c0-36.12.04-72.25-.07-108.37,0-2.77,1.06-4.06,3.27-5.37,20.21-12.01,40.33-24.15,60.51-36.2,15.97-9.54,32-18.98,47.97-28.53,15.76-9.42,31.45-18.95,47.21-28.38,9.66-5.78,19.39-11.45,29.09-17.17,4.18-2.47,8.3-1.9,12.25.45,19.02,11.35,38.03,22.74,57.02,34.15,14.37,8.64,28.67,17.4,43.06,26,19.85,11.88,39.76,23.67,59.65,35.48,8.21,4.87,16.45,9.68,24.68,14.52,1.79,1.06,2.55,2.42,2.54,4.74-.09,72.5-.09,145-.02,217.5,0,2.47-.81,3.65-2.95,4.82-17.94,9.84-35.77,19.87-53.69,29.76-9.77,5.39-19.66,10.56-29.45,15.91-22.79,12.47-45.55,25-68.32,37.5-12.55,6.88-25.09,13.78-37.71,20.53-.87.47-2.58.03-3.6-.53-9.24-5.06-18.39-10.29-27.63-15.37-20.48-11.28-40.96-22.57-61.51-33.73-14.11-7.66-28.41-14.99-42.5-22.69-16.13-8.81-32.13-17.86-48.2-26.79-2.46-1.37-4.88-2.86-7.48-3.91-3.35-1.35-4.24-3.46-4.22-7.08.17-35.75.1-71.5.1-107.25Z"/>
    <path class="cls-4" d="M214.6,84.47c-4.56-.38-9.12-.76-14.1-1.17v-5.69c-5.52-.38-10.66-.73-16.52-1.13,3.95-2.03,7.38-4,10.98-5.57,3.91-1.71,6.11-4.03,5.42-8.68-.43-2.93-.08-5.97-.08-8.62-2.58-1.09-4.88-2.06-7.86-3.32-7.96,4.74-16.69,9.87-25.35,15.1-17.29,10.45-34.53,20.96-51.8,31.44-18.41,11.18-36.82,22.37-55.25,33.52-4.5,2.73-9.06,5.37-13.64,7.96-2.53,1.43-3.78,3.11-3.77,6.36.14,40.13.09,80.26.09,120.39,0,33.25,0,66.5,0,100.41-3.87-1.88-7.5-3.45-10.95-5.36-7.29-4.04-14.38-8.43-21.76-12.29-2.46-1.29-3.34-2.58-3.33-5.31.07-72.38.08-144.77-.03-217.15,0-2.55,1-3.85,2.84-4.95,26.68-15.97,53.35-31.95,80.06-47.87,24.92-14.86,49.88-29.63,74.8-44.48,9.89-5.89,19.69-11.93,29.6-17.78,1.71-1.01,3.78-1.43,6.24-2.33v27.98c6.69.54,11.86,6.07,7.54,14.1,9.18,5.5,18.4,10.98,27.57,16.53,17.28,10.46,34.52,20.98,51.8,31.44,16.34,9.88,32.72,19.7,49.08,29.56,6.29,3.79,12.53,7.66,18.88,11.35,2.2,1.28,2.82,2.89,2.81,5.38-.08,36.13-.06,72.26-.06,108.39,0,36.25-.05,72.51.09,108.76.01,3.18-1.06,5-3.69,6.41-8.64,4.63-17.27,9.3-25.85,14.04-18.56,10.24-37.07,20.58-55.65,30.79-10.32,5.66-20.77,11.08-31.11,16.7-13.62,7.4-27.19,14.9-41.3,22.64,0-1.64,0-2.95,0-4.26,0-117.77.01-235.53-.06-353.3,0-2.87.52-4.41,3.58-5.22,3.72-.99,7.25-2.72,10.86-4.13-.03-.21-.05-.43-.08-.64Z"/>
    <g>
      <path class="cls-2" d="M241.49,402.27v16.43h-19.43v11.97h-21.53v-82.06h21.28v24.28h17.31v-7.09h25.46c.11-2.43.21-4.48.32-6.72h16.81v22.12h-14.53v21.06h-25.69Z"/>
      <path class="cls-2" d="M196.44,344.93c2.32-6.31,1.62-12.24-1.45-18.2-.76.16-1.9.39-3.47.71-.55-2.64-1.09-5.2-1.68-8.01,26.67-5.44,50.91-15,65.39-40.25,6.87,3.91,11.65,8.55,11.95,16.74.1,2.78,1.49,5.7,2.93,8.2,1.17,2.03.68,3.03-.55,4.66-6.77,8.95-15.09,16.13-24.79,21.65-10.09,5.75-20.12,11.66-31.58,14.51-5.5,1.37-10.9,1.65-16.74,0Z"/>
      <path class="cls-2" d="M200.27,241.91c0-9.94-.06-19.26.09-28.58.02-.97,1.23-2.61,2.09-2.76,6.99-1.22,14.04-2.13,21.06-3.17,4.35-.65,8.69-1.39,13.04-2.02,1.05-.15,2.14-.02,3.2-.02-.44,4.7-.73,9.21-1.37,13.67-.15,1.07-1.23,2.29-2.22,2.91-4.85,3.06-9.74,6.07-14.77,8.84-6.83,3.76-13.8,7.29-21.14,11.14Z"/>
      <path class="cls-2" d="M200.53,348.61c-22.32,26.02-31.51-1.62-21.41,29.36s21.41,52.69,21.41,52.69"/>
    </g>
    <g>
      <path class="cls-1" d="M98.89,398.05c-5.83-3.13-10.78-5.81-15.74-8.45-16.46-8.75-32.94-17.46-49.37-26.25-4.59-2.45-5.53-5.5-4.5-12.42,1.78-11.94,6.91-22.04,14.66-31.42,7.81-9.46,18.05-14.66,28.57-19.69,6.49-3.1,13.25-5.67,20.02-8.12,2.94-1.06,6.19-1.37,9.32-1.78,5.63-.74,6.51-1.56,6.91-7.11.47-6.52,4.54-9.72,11.02-8.62,7.11,1.21,14.19,2.63,21.33,3.64,4.44.63,8.54,4.04,9.22,8.71.06.43.56.8.87,1.18,9.94,12,21.51,21.58,37.07,25.44,3.42.85,6.69,2.25,10.1,3.41v29.87c-4.8,2.48-8.89-1.15-13.22-2.37-17.28-4.87-32.55-13.44-45.54-25.93-.24-.23-.61-.34-.74-.4-.2,1.76-.16,3.56-.62,5.22-3.78,13.62-12.04,24.7-20.07,36.01-5.57,7.85-10.41,16.23-15.32,24.52-1.2,2.02-1.39,4.64-2.01,6.99-.65,2.46-1.27,4.93-1.96,7.58Z"/>
      <path class="cls-1" d="M300.02,397.47c-.81-3.11-1.99-5.86-2.16-8.68-.32-5.38-2.35-9.89-5.12-14.42-7.29-11.88-14.22-23.98-21.28-36-3.22-5.49-6.39-11.01-9.61-16.56,2.43-2.9,4.8-5.74,7.18-8.58,1.36-2.9.21-5.87-1.41-9.27-2.36-4.94-3.06-10.69-4.25-16.15-.13-.62,1-2.01,1.79-2.25,5.33-1.63,10.72-3.05,16.99-4.78-.9,7.69-1.68,14.32-2.46,20.97h26.54c-4.88-3.72-9.2-7.01-13.97-10.64,1.03-.66,1.83-1.6,2.43-1.49,3.34.61,6.73,1.2,9.92,2.32,3.65,1.28,7.07,3.2,10.66,4.68,7.09,2.92,14.27,5.62,21.31,8.63,1.98.85,3.6,2.52,5.41,3.76,1.96,1.35,3.03,3.5,6.49,3.19,2.23-.2,5.4,2.97,7.11,5.36,5.53,7.76,11.17,15.54,15.57,23.94,2.44,4.66,2.49,10.58,3.65,16.04-25.15,13.42-49.73,26.54-74.79,39.92Z"/>
      <path class="cls-1" d="M200.24,241.89c-7.27-3.8-14.24-7.3-21.07-11.05-5.03-2.76-9.88-5.84-14.79-8.79-1.64-.99-2.41-2.25-2.46-4.4-.08-4.01-.78-8.01-1.27-12.51,4.27.53,8.47.97,12.66,1.59,7.86,1.17,15.7,2.49,23.56,3.64,2.05.3,3.45.64,3.42,3.24-.11,9.22-.04,18.45-.04,28.28Z"/>
    </g>
    <g>
      <path class="cls-4" d="M331.39,370.69c-.43.15-.91-.07-1.07-.49-2.28-5.8-2.14-7.62,2.98-11.72,4.47-3.59,6.79-7.82,7.67-13.2.62-3.8,1.29-7.58,1.94-11.37.16.23.33.46.49.7.25.36.19.85-.15,1.14-5.39,4.55-10.78,9.1-16.15,13.66-.85.73-1.49,1.76-2.43,2.32-2.51,1.5-4.93,1.97-7.32-.56-4.74-5.05-9.52-10.11-16.02-13.03-1.11-.5-2.25-.96-3.88-1.64-.49-.2-.67-.8-.39-1.25,1.71-2.67,3.03-5.41,5.14-7.24,4.1-3.53,5.27-7.81,5.29-12.74,0-.71-.82-1.11-1.38-.67-4.45,3.47-8.86,6.8-13.1,10.34-2.62,2.18-4.88,1.34-7.23-.18-5.13-3.32-10.24-6.68-15.36-10.03-.38-.25-.74-.51-1.15-.81-.37-.27-.88-.21-1.16.15-1.86,2.34-3.82,4.8-5.83,7.31-.21.27-.25.64-.08.94,6.05,10.78,12.01,21.67,18.26,32.38,5.06,8.66,10.82,16.92,15.61,25.71,1.77,3.25,1.63,7.54,2.39,11.35.36,1.83.76,3.66,1.16,5.55.08.36-.08.73-.4.91-4.79,2.79-9.66,5.69-14.59,8.48-15.45,8.75-30.91,17.48-46.39,26.17-10.89,6.12-22.2,11.6-32.57,18.48-5.19,3.44-8.3,2.01-13.08-.03-8.3-3.54-13.49-9.05-17.24-17.23-6.49-14.15-15.36-26.85-26.55-37.85-4.31-4.23-8.24-8.84-12.52-13.51-.33-.36-.29-.93.09-1.24,1.19-.94,2.48-1.96,4.1-3.25.34-.27.83-.24,1.13.06,2.18,2.19,5.08,4.69,7.22,7.73,3.16,4.48,7.4,7.44,11.88,10.2,9.08,5.59,16.7,12.92,23.61,20.83,6.76,7.74,20.89,8.35,28.37,4.09,1.9-1.08,3.68-2.47,5.29-3.96,7.94-7.33,15.94-14.6,23.65-22.17,11.05-10.86,23.08-20.3,36.95-27.3.32-.16.56-.48.92-.81-.26-.64-.49-1.3-.8-1.92-.18-.36-.39-.7-.62-1.07-.22-.35-.65-.49-1.03-.35-13.81,5.34-26.41,12.58-38.53,20.81-11.73,7.97-31.73,23.75-34.46,25.89-.22.17-.43.34-.62.49-.51.4-1.26.1-1.36-.55-.16-1.1-.34-2.54-.31-4.2.2-10.07.9-20.16.58-30.21-.29-9.21-1.67-18.38-2.56-27.57-.26-2.71,1.8-1.88,3.22-2.14,9.58-1.75,19.66-1.75,28.33-6.94,7.45-4.46,14.6-9.42,21.88-14.18,1-.66,1.97-1.36,3.04-2.12.39-.28.48-.82.19-1.2-1.13-1.48-2.31-3.01-3.5-4.56-.28-.36-.79-.44-1.16-.18-10.2,7.21-20.51,14.47-32.68,17.97-4.75,1.37-10.14.55-15.23.62-.45,0-1.23-.79-1.27-1.26-.05-.53.49-1.55.91-1.63,8.86-1.72,13.13-10.13,20.59-14.03,5.8-3.04,10.85-7.52,16.19-11.43,4.32-3.16,5.48-7.09,2.69-11.91-.29-.5-.52-1.05-.67-1.43-.12-.31-.05-.65.17-.89,3.72-3.97,7.24-7.73,9.85-10.51.11-.11.24-.19.39-.23,3.79-1.07,6.51-1.87,9.25-2.61,6.69-1.82,13.3-4.14,20.11-5.17,2.93-.45,6.22,1.46,9.27,2.42.28.09.48.3.56.57.71,2.65,1.55,5.5,2.19,8.4.56,2.53,2.31,3.46,4.52,4.05,10.74,2.87,21.4,6.02,31.28,11.28,7,3.73,14.08,7.36,20.8,11.55,7.88,4.92,12.48,12.77,16.73,20.74,2.02,3.8,3.7,7.78,5.5,11.66.16.35.07.76-.23,1.01-12.47,10.38-25.87,19.21-41.35,24.57ZM270.7,308.15c12.73-5.25,9.43-16.7,11.47-26.83-4.51.79-8.4,1.21-12.14,2.2-6.38,1.69-6.8,2.31-6,8.79.74,5.97,1.9,11.88,6.67,15.84Z"/>
      <path class="cls-4" d="M136.26,317.59c-1.03-1.99-1.46-3.16-2.18-4.11-.73-.95-1.75-1.67-2.9-2.73,5.49-7.5,9.04-15.96,9.97-25.71-6.68-2.07-13.25-4.02-20.21-3.32-1.33.13-3.29,1.41-3.66,2.58-3.38,10.55-11.37,15.66-21.2,19.06-12.5,4.32-23.88,10.87-32.42,20.99-7.15,8.48-13.03,18.04-19.43,27.15-2.94,4.18-5.79,8.43-8.66,12.62-6.42-3.09-7.32-5.62-6.31-13.32,2.03-15.39,9.61-27.89,21.02-37.66,6.49-5.56,14.6-9.38,22.32-13.31,6.39-3.26,13.22-5.69,19.98-8.16,2.82-1.03,5.93-1.39,8.95-1.74,5.92-.69,6.85-1.51,7.25-7.14.46-6.5,4.53-9.69,11.02-8.6,7.35,1.23,14.69,2.54,22.06,3.69,4.15.65,6.29,3.87,8.67,6.66.5.58-.2,2.32-.55,3.46-2.29,7.32-4.3,14.75-7.13,21.85-1.12,2.82-4.09,4.91-6.58,7.74Z"/>
      <path class="cls-4" d="M111.26,201.78c3.22-.72,6.77-1.55,10.33-2.3,3.1-.66,6.28-1.05,9.31-1.94,1.04-.3,2.56-1.83,2.48-2.66-.86-8.18,3.37-13.83,8.8-19.07,10.32-9.95,21.04-19.34,34.02-25.76,3.81-1.89,4.4-1.66,5.92,2.27.87,2.25,1.78,4.5,2.76,6.99-4.74,3.08-10.2,5.82-14.68,9.69-9.95,8.58-19.48,17.66-29.04,26.69-2.3,2.17-1.45,5.1,1.27,8.3,8.17,9.62,18.62,16.27,29.35,22.49,9.75,5.64,19.72,10.88,28.51,15.7.89,2.33,1.44,3.73,1.95,5.13,1.6,4.4,3.17,8.8,4.92,13.65-2.84.57,12.55,35.35,10.27,35.81,0,16.48-.79,13.16-17.23,16.16l-1.09.12c-.11-1.16-.32-2.32-.32-3.47-.02-17.62-.05-35.25.01-52.87.02-4.45-1.82-7.35-5.94-9.2-15.61-6.99-29.63-16.63-43.62-26.32-4.03-2.79-7.71-6.13-11.9-8.63-1.97-1.18-4.77-.97-7.19-1.42-5.41-.99-10.8-2.2-16.26-2.86-1.92-.23-4.29.4-5.94,1.45-3.84,2.47-6.71,2.85-10.18.53-3.05-2.04-4.61-5.74-3.7-8.81,1.14-3.86,4.45-6.65,8.07-6.81,3.48-.14,6.66,2.23,8.2,6.08.08.2.29.34.92,1.05Z"/>
      <path class="cls-4" d="M201.06,116.41c1.54,1.26,2.54,1.68,2.86,2.4,4.1,9.26,8.7,18.36,11.95,27.91,3.07,9.03.2,15.14-7.75,20.76-1.29.91-2.62,1.77-3.94,2.64-3.08,2.02-4.19,1.73-4.56-1.79-1.22-11.55-2.72-23.1-.9-34.74.83-5.31,1.46-10.65,2.34-17.18Z"/>
    </g>
    <g>
      <path class="cls-3" d="M0,349.87C0,272.87,0,195.86,0,118.85c.55-.29,1.12-.55,1.65-.87C66.53,79.15,131.41,40.32,196.24,1.41c2.76-1.65,4.76-2.01,7.71-.22,28.29,17.11,56.69,34.05,85.07,51.03,37.15,22.22,74.32,44.43,111.48,66.64v231.02c-1.24.53-2.54.96-3.72,1.61-64.45,35.26-128.89,70.52-193.29,105.87-2.37,1.3-4.11,1.3-6.48,0-64.4-35.34-128.84-70.61-193.29-105.87-1.18-.65-2.48-1.08-3.72-1.61ZM187.09,75.64l.17.75c4.11.18,8.22.23,12.32.57,7.71.65,15.42,1.29,23.08,2.36,1.59.22,3.49,2.03,4.15,3.57.37.88-1.15,3.25-2.4,4-3.6,2.18-7.44,3.99-11.28,5.75-3.15,1.45-7.67,1.77-9.31,4.15-1.65,2.41-.61,6.74-.53,10.22.05,2.18-.23,4.94.93,6.42,6.84,8.68,10.53,18.91,15.03,28.76.55,1.21,1.8,2.34,3.01,2.96,15.25,7.81,28.88,17.79,40.76,30.16,5.2,5.42,9.2,11.23,7.09,19.33,5.71,1.24,11.15,2.42,16.69,3.62.98-1.2,1.96-2.66,3.21-3.85,4.45-4.23,11.43-4.3,16.03-.25,4.76,4.19,5.53,11.25,1.78,16.25-3.73,4.96-10.93,6.92-15.58,3.08-3.62-2.99-6.72-2.56-10.48-1.65-3.15.77-6.35,1.68-9.54,1.77-4.18.12-4.98,2.31-5.2,5.85-.88,13.96-1.97,27.91-2.97,41.86-.31,4.31-.62,8.62-.96,13.23,1.74-.35,2.96-.58,4.17-.84,7.74-1.61,15.51-2.59,23.41-1.19,4.77.85,7.14,2.81,6.47,7.39-.74,5.07,1.83,6.08,5.69,7.13,18.21,4.94,35.48,11.88,50.04,24.36.21.18.65.08,1.05.11.04-.61.09-1.1.09-1.6,0-54.75-.01-109.5.07-164.25,0-2.27-.93-3.28-2.68-4.34-27.56-16.67-55.07-33.4-82.6-50.11-19.73-11.97-39.48-23.93-59.66-36.16-1.31,1.29-3.71,2.54-3.77,3.9-.25,5.38-3.41,8.43-7.5,10.87-3.5,2.09-7.17,3.88-10.77,5.81ZM212.23,85.6c0-.27,0-.55,0-.82-1.32-.14-2.64-.36-3.97-.42-10.6-.48-21.21-.93-31.81-1.37-2.58-.11-5.66-.31-5.67-3.43,0-1.84,1.77-4.41,3.48-5.4,5.05-2.93,10.5-5.15,15.71-7.82,2.42-1.24,4.76-2.73,6.89-4.43.73-.58,1.24-2.34.9-3.19-.65-1.65-7.63-2.93-9.19-1.98-46.45,28.19-92.89,56.39-139.36,84.53-1.9,1.15-2.77,2.33-2.77,4.68.07,54.36.05,108.71.07,163.07,0,.89.19,1.77.23,2.04,7.62-4.63,14.84-9.9,22.79-13.59,9.2-4.27,19.01-7.26,28.65-10.54,3.48-1.18,5.83-2.14,5.19-6.77-.67-4.86,1.53-7.16,6.52-7.55,5.18-.41,10.44-.4,15.63-.1,3.88.22,7.72,1.18,11.72,1.83,0-1.71.09-3.08-.01-4.43-.76-9.7-1.59-19.4-2.34-29.1-.59-7.72-1.11-15.44-1.61-23.16-.15-2.25-.78-3.42-3.46-3.73-4.81-.55-9.55-1.73-14.29-2.79-2.17-.49-3.75-.44-5.59,1.35-3.58,3.49-9.16,3.75-13.55,1.24-4.24-2.43-6.67-7.32-5.96-11.98.8-5.23,4.23-9.04,9.13-10.16,6.59-1.5,10.97,1.63,14.08,6.69,5.8-1.26,11.31-2.46,16.84-3.66-2.23-8.11,1.68-13.7,6.51-18.8,11.93-12.61,25.79-22.67,41.17-30.7,1.36-.71,2.62-2.16,3.29-3.57,4.49-9.41,7.86-19.39,14.59-27.63.71-.87,1.16-2.22,1.18-3.36.11-5,.24-10.01-.08-14.99-.18-2.86.73-4.54,3.3-5.5,3.94-1.47,7.87-2.96,11.81-4.44ZM23.19,354.16c-.2-13.6,5.3-24.05,14.23-32.89,1.86-1.84,2.4-3.75,2.39-6.28-.06-57.5-.03-114.99-.1-172.49,0-2.53.71-3.98,2.95-5.33,26.62-16.04,53.17-32.19,79.74-48.32,20.59-12.5,41.2-24.97,61.75-37.56,1.14-.7,2.51-2.33,2.46-3.47-.46-9.45,1.59-12.98,10.41-17.07V9.24c-1.41.79-2.49,1.36-3.54,1.98C132.32,47.8,71.17,84.41,9.96,120.91c-2.48,1.48-3.3,3.01-3.3,5.86.09,71.5.07,142.99.07,214.49,0,.75-.2,1.58.05,2.23.36.94.83,2.12,1.61,2.57,4.64,2.67,9.38,5.17,14.79,8.1ZM377.26,354.12c4.72-2.54,8.78-4.95,13.04-6.93,2.8-1.3,3.54-3.08,3.53-6.07-.08-71.23-.09-142.46.02-213.69,0-3.46-1.14-5.25-4.02-6.97-61.22-36.5-122.38-73.1-183.55-109.66-.87-.52-1.82-.91-2.94-1.47v21.44c8.62,3.64,11.17,7.89,10.59,16.75-.08,1.17,1.12,2.93,2.22,3.61,46.93,28.59,93.91,57.11,140.94,85.54,2.64,1.6,3.73,3.22,3.73,6.43-.12,57.36-.07,114.72-.13,172.07,0,2.39.57,4.15,2.31,5.91,8.78,8.9,14.58,19.21,14.25,33.03ZM278.46,361.83c-6.32-11.89-12.65-23.81-18.93-35.62-5.06,3.2-10.21,6.72-15.61,9.83-12.42,7.15-25.49,12.73-39.98,13.7-15.84,1.06-30.15-4.33-43.76-11.74-6.73-3.66-13.14-7.91-19.23-11.61-6.35,11.88-12.7,23.77-19.2,35.94,2.26,1.39,5.16,2.86,7.71,4.8,11.11,8.45,22.28,16.85,33.11,25.65,7.83,6.36,15.64,12.89,22.57,20.19,4.95,5.21,9.82,8.16,17.18,7.52,4.04-.35,7.11-1.47,9.84-4.34,3.78-3.99,7.5-8.09,11.68-11.62,10.29-8.69,20.71-17.23,31.31-25.54,7.72-6.06,15.8-11.66,23.3-17.15ZM139.26,207.14c.38,4.31.72,7.65.97,10.99,1.21,15.92,2.68,31.83,3.42,47.78.26,5.5,2.73,9.17,5.88,13.15,11.73,14.84,25.62,26.34,44.42,31.19,4.39,1.13,8.17,1.27,12.59.02,16.53-4.69,30.22-13.37,40.74-27.02,2.13-2.77,4.77-5.16,6.73-8.03,1.26-1.83,2.25-4.17,2.45-6.36,1.33-15.29,2.44-30.61,3.59-45.91.38-4.99.68-9.98,1.07-15.7-2.22,1.87-3.71,3.17-5.25,4.41-15.3,12.22-32.48,21.36-49.62,30.58-4.14,2.23-7.87,2.19-12.01-.03-18.89-10.15-37.81-20.23-54.97-35.06ZM296.25,398.53c-1.05-4.61-2.36-8.69-2.84-12.87-.85-7.35-4.43-13.08-10.12-18.82-9.85,7.64-20.01,15.05-29.63,23.12-11.38,9.55-22.2,19.76-33.45,29.46-2.87,2.48-6.28,5.39-9.75,5.87-6.69.93-13.6.37-20.41.19-1.37-.04-2.87-.93-4.05-1.78-3.44-2.49-6.89-4.98-10.07-7.78-9.83-8.68-19.3-17.77-29.35-26.19-9.53-7.98-19.6-15.3-29.42-22.9-5.51,5.76-9.33,11.37-10,18.78-.27,3.06-1.07,6.14-2.12,9.04-1.07,2.95-.24,4.29,2.44,5.75,29.94,16.24,59.82,32.59,89.67,49,2.22,1.22,3.86,1.3,6.12.05,18.35-10.16,36.79-20.16,55.19-30.23,12.58-6.88,25.15-13.79,37.78-20.72ZM314.92,297.04c-2.34,24.84-10.97,44.58-32.07,56.97,5.23,9.28,14.83,15.41,16.7,26.44,11.62-4.15,21.95-11.4,27.91-18.96,11.24-14.22,14.84-30.58,13.78-48.25-.07-1.12-.91-2.67-1.86-3.19-7.82-4.3-15.75-8.41-24.46-13ZM117.62,353.96c-21.24-12.48-29.9-32.24-32.05-56.94-8.78,4.65-16.8,8.81-24.7,13.18-.9.5-1.64,2.19-1.62,3.31.09,5.59.24,11.19.76,16.75,2.13,22.85,18.79,43.17,40.97,50.1,1.85-10.98,11.44-17.03,16.64-26.41ZM179.08,152.34c-4.15,2.52-7.78,4.68-11.37,6.9-10.04,6.21-18.75,14.01-26.8,22.56-5.4,5.73-5.78,10.26-.66,15.78,5.03,5.43,10.82,10.14,16.28,15.17.31-.25.63-.5.94-.74-.12-1.19-.29-2.38-.37-3.58-.37-5.82,2.78-8.22,8.42-6.57,2.85.84,5.75,1.58,8.67,2.13,7.51,1.41,15.04,2.68,22.34,3.97.48-1.04.66-1.26.66-1.48.04-6.99-.45-14.02.22-20.95.69-7.16-1.29-12.02-7.62-15.94-5.91-3.66-10.32-9.07-10.71-17.26ZM221.35,152.42c-.12,5.33-2.05,9.24-5.27,12.35-3.22,3.11-6.68,6.03-10.3,8.66-1.97,1.43-2.63,2.88-2.59,5.24.14,8.12.05,16.25.05,24.37v4.27c2.08,0,3.62.24,5.06-.04,8.92-1.73,17.87-3.39,26.72-5.46,5.74-1.34,8.78.82,8.38,6.69-.08,1.17-.23,2.33-.35,3.5.37.28.73.55,1.1.83,5.64-5.38,11.64-10.45,16.81-16.25,4.21-4.71,3.84-8.58-.25-13.43-2.64-3.14-5.76-5.87-8.67-8.78-8.92-8.88-19.35-15.62-30.69-21.96ZM142.82,281.74c-.98,4.19-1.59,7.87-2.76,11.37-.74,2.21-.06,3.45,1.39,4.87,9.45,9.27,19.35,17.94,31.29,23.96,13.26,6.69,26.98,9.74,41.67,5.4,18.33-5.41,32.52-17.05,45.54-30.4.53-.54,1.01-1.59.86-2.26-.93-4.16-2.04-8.27-3.19-12.81-1.15,1.31-1.94,2.26-2.79,3.14-5.61,5.85-10.94,12.03-16.94,17.46-9.01,8.16-20.68,11.13-31.8,15.12-4.05,1.46-7.7,1.37-11.84.08-16.5-5.13-31.78-12.07-42.88-26.04-2.61-3.29-5.48-6.36-8.55-9.9ZM115.51,277.77c-5.8-.5-6.26-.09-6.02,5.25.03.62,0,1.25.09,1.87.49,3.89-1.26,6.1-4.98,7.11-3.35.91-6.7,1.9-9.93,3.17-.89.35-1.97,1.87-1.9,2.77.85,10.83,3.38,21.24,8.85,30.74,4.82,8.37,11.59,14.73,20.64,19.76,3.94-8.56,7.76-16.73,11.42-24.98.4-.89.23-2.55-.37-3.28-2.85-3.44-5.63-7.05-9.02-9.9-6.04-5.1-9.22-11.16-8.81-19.15.23-4.44.04-8.91.04-13.36ZM284.91,277.74c0,5.13,0,9.99,0,14.85.01,6.32-2.1,11.54-6.95,15.89-3.87,3.48-7.22,7.56-10.63,11.53-.64.75-1,2.41-.62,3.26,3.7,8.35,7.59,16.62,11.76,25.62,4.13-3.16,7.79-5.53,10.93-8.46,12.39-11.52,17.01-26.5,18.37-42.78.07-.79-1.03-2.14-1.88-2.47-2.88-1.14-5.93-1.86-8.85-2.9-6.23-2.21-6.35-2.46-6.05-9.19.24-5.4-.14-5.74-6.09-5.34ZM51.96,316.67c-7.46,6.94-14.35,12.86-18.2,21.13-2,4.31-2.92,9.23-3.66,13.97-.62,3.96,1.11,6.99,5.04,9.06,12.44,6.53,24.7,13.4,37.03,20.12,8.49,4.62,16.99,9.21,25.71,13.93.67-2.56,1.25-4.79,1.91-7.31-14.9-5.09-27.06-13.72-35.89-26.71-8.82-12.99-11.71-27.7-11.96-44.19ZM348.59,316.73c-.62,34.92-15.56,58.94-47.87,71.03.65,2.41,1.26,4.62,1.88,6.92.63-.21,1-.28,1.31-.45,20.06-10.99,40.13-21.96,60.17-32.99,5.52-3.04,6.95-5.95,6.33-11.51-1.6-14.37-11.33-23.26-21.82-32.99ZM136.46,301.72c-3.31,4.91-3.14,7.03,1.09,11.45.43.45.9.86,1.35,1.29,10.1,9.61,21.75,16.81,34.53,22.24,9.2,3.9,18.8,7.15,28.79,6.2,24.2-2.31,44.21-13.71,61.33-30.47,3.97-3.88,3.74-6.48-.28-11.78-.99,1.23-1.8,2.49-2.84,3.52-8.75,8.64-18.24,16.34-29.15,22.12-9.6,5.08-19.74,8.48-30.7,8.54-14.68.08-27.76-5.25-39.53-13.46-8.55-5.97-16.35-12.99-24.6-19.64ZM164.38,209.03c1.08,3.94-.61,8.32,3.97,10.77,10.04,5.37,19.89,11.09,29.92,16.48,1.13.61,3.16.56,4.3-.06,9.62-5.21,19.16-10.57,28.66-16,4.26-2.43,5.58-5.99,4.42-11.58-23.61,7.65-47.31,7.79-71.28.39ZM199.61,119.45c-3.43,7.19-6.75,13.66-9.63,20.31-6.41,14.77-5.27,18.39,8.03,27.64.2.14.41.39.62.4,1.08.05,2.52.5,3.2-.02,3.35-2.58,6.65-5.26,9.66-8.23,2.85-2.82,4.05-6.5,2.41-10.32-3.97-9.23-8.19-18.34-12.34-27.49-.23-.51-.74-.9-1.93-2.3ZM121.79,277.15c-1.57,15.41-1.51,24.76,5.85,27.77,5.56-7.17,8.53-15.36,9.67-24.85-5.11-.96-10.18-1.91-15.51-2.92ZM279.28,277.06c-5.86,1.09-10.93,2.04-16.13,3.01,1.27,9.53,4.12,17.86,10.09,25.24,9.67-7.77,5.2-18.09,6.04-28.25ZM200.13,51.53c3.94.06,6.91-2.74,7.05-6.62.14-4.1-2.76-7.18-6.81-7.23-3.94-.05-6.91,2.74-7.05,6.62-.15,4.09,2.75,7.17,6.81,7.23ZM114.5,203.81c.05.58.1,1.16.15,1.74,5.76,1.13,11.52,2.25,17.72,3.47-.27-3.22-.5-5.84-.78-9.14-6.16,1.42-11.63,2.68-17.1,3.94ZM268.17,209.04c6.24-1.25,12-2.4,17.76-3.55-5.21-4.04-11.02-4.42-17.2-5.08-.2,3.03-.36,5.58-.56,8.63ZM107.41,203.27c.02-2.9-1.94-4.97-4.82-5.07-3.07-.11-5.24,1.95-5.26,4.99-.02,2.9,1.95,4.96,4.81,5.07,3.07.11,5.25-1.95,5.26-4.99ZM298.09,198.2c-3.04.02-5.1,2.19-4.99,5.26.1,2.87,2.17,4.83,5.07,4.82,3.07-.02,5.1-2.16,4.99-5.26-.1-2.87-2.17-4.84-5.06-4.82Z"/>
      <path class="cls-3" d="M154.96,246.3c2.17-.63,4.31,1.45,3.58,3.6-.1.29-.23.5-.42.63-.99.64-3.05.62-4.02-.04-.63-.43-.7-3.04-.05-3.7.23-.23.53-.38.91-.49Z"/>
      <path class="cls-3" d="M240.13,249.74c-.24-1.76,1.29-3.29,3.04-3.01.64.1,1.12.26,1.39.58.26.32.37.76.4,1.26.11,1.56-1.13,2.86-2.7,2.88-.59,0-1.13-.06-1.56-.32-.33-.2-.47-.7-.57-1.4Z"/>
      <path class="cls-3" d="M183.47,263.49c2.1-.72,4.25,1.29,3.67,3.43-.08.31-.21.55-.4.69-.16.12-.35.22-.55.28-2.07.7-4.21-1.31-3.63-3.42.06-.2.14-.39.25-.55.14-.2.36-.34.66-.44Z"/>
      <path class="cls-3" d="M211.59,266.38c-.08-1.44,1.17-2.6,2.6-2.41,1,.13,1.73.27,1.95.69.32.59.28,1.38.16,2.22-.16,1.13-1.14,1.99-2.28,1.97-.76,0-1.46-.09-1.88-.47-.4-.37-.5-1.07-.55-2Z"/>
      <path class="cls-3" d="M213.49,253.29c-1-.93-.91-2.54.19-3.35.87-.64,1.54-1.08,2.02-.93.67.21,1.2.85,1.71,1.56.63.88.52,2.1-.27,2.84-.58.55-1.16,1.01-1.76,1.02-.57.02-1.16-.46-1.9-1.14Z"/>
      <path class="cls-3" d="M183.72,275.85c1.92-.47,3.72,1.16,3.42,3.11-.08.52-.22.9-.48,1.09-.97.69-3.01.74-4.05.14-.64-.37-.82-3.01-.19-3.69.3-.32.74-.51,1.31-.65Z"/>
      <path class="cls-3" d="M211.67,277.06c-.13-1.24.91-2.3,2.16-2.19,1.13.1,1.96.2,2.36.67.41.49.46,1.29.44,2.14-.02,1.01-.79,1.85-1.79,1.96-.93.11-1.82.15-2.46-.23-.47-.28-.58-1.16-.7-2.36Z"/>
      <path class="cls-3" d="M185.45,249.64c1.4.96,1.5,2.99.18,4.07-.58.47-1.05.76-1.46.69-1.17-.21-2.66-1.58-2.94-2.72-.18-.72,1.53-2.68,2.47-2.73.54-.03,1.09.25,1.75.7Z"/>
      <path class="cls-3" d="M225.96,264.75c-.19-1.64,1.21-3.02,2.85-2.8.8.11,1.38.26,1.61.62.3.5.34,1.16.29,1.88-.1,1.34-1.2,2.38-2.55,2.36-.65,0-1.22-.1-1.6-.42-.36-.31-.51-.88-.6-1.65Z"/>
      <path class="cls-3" d="M168.07,261.4c1.93-.48,3.74,1.12,3.51,3.09-.07.55-.19.94-.46,1.13-1,.7-3.05.79-4.1.18-.66-.38-.87-3.01-.25-3.74.28-.33.72-.52,1.29-.66Z"/>
      <path class="cls-3" d="M226.58,248.76c-.05-1.16.96-2.08,2.11-1.94,1.26.16,2.19.28,2.46.77.37.68.26,1.63.11,2.6-.14.9-.91,1.56-1.81,1.58s-1.8-.02-2.29-.47c-.48-.44-.52-1.34-.57-2.54Z"/>
      <path class="cls-3" d="M168.68,247.66c2.17-.56,4.07,1.73,3.24,3.81-.14.35-.32.63-.56.83-.26.22-.65.28-1.11.26-1.64-.06-2.86-1.53-2.69-3.16.06-.53.18-1.01.46-1.37.14-.18.37-.3.66-.37Z"/>
      <path class="cls-3" d="M207.06,436.27c.05,3.93-3.62,7.78-7.5,7.87-3.59.08-6.87-3.3-6.82-7.03.05-3.86,4.24-7.76,8.24-7.67,3.15.07,6.03,3.31,6.08,6.84Z"/>
      <path class="cls-3" d="M146.04,398.34c-.03,3.47-3.56,7.16-6.79,7.12-3.16-.05-6.73-3.62-6.81-6.82-.08-3.21,3.44-6.53,6.89-6.5,4.32.03,6.76,2.29,6.72,6.21Z"/>
      <path class="cls-3" d="M268.67,398.37c-.07,4.12-2.82,6.92-6.74,6.86-3.43-.05-6.03-2.99-6.02-6.81.01-3.99,2.63-6.75,6.43-6.77,3.88-.02,6.39,2.65,6.33,6.71Z"/>
    </g>
  </g>
</svg>