<?xml version="1.0" encoding="UTF-8"?>
<svg id="NKCyber_Logo" xmlns="http://www.w3.org/2000/svg" viewBox="0 0 414.91 469.2">
  <defs>
    <style>
      .cls-1 {
        fill: #fff;
      }

      .cls-2 {
        fill: #36ae84;
      }

      .cls-3 {
        fill: #36a66e;
      }

      .cls-4 {
        fill: #355e4c;
      }

      .cls-5 {
        fill: #121714;
      }
    </style>
  </defs>
  <g id="_385AAE" data-name="#385AAE">
    <path class="cls-2" d="m411.38,61.52c0,4.45-.03,8.9,0,13.35.09,10.61.25,21.22.29,31.82,0,2.3-.45,4.6-.58,6.9-.06,1,.29,2.03.27,3.04-.07,4.39-.16,8.79-.32,13.18-.17,4.7-.39,9.4-.65,14.1-.29,5.28-.61,10.56-.99,15.83-.39,5.37-.82,10.74-1.31,16.1-.49,5.35-.95,10.7-1.65,16.02-.96,7.26-2.16,14.49-3.21,21.74-.7,4.82-1.26,9.66-2.01,14.47-.68,4.38-1.46,8.74-2.29,13.09-.91,4.76-1.89,9.51-2.94,14.25-1.06,4.78-2.09,9.57-3.42,14.28-1.85,6.54-3.92,13.01-5.97,19.5-1.52,4.81-3.03,9.63-4.74,14.37-1.37,3.8-3.02,7.51-4.59,11.23-1.41,3.34-2.86,6.66-4.36,9.95-.46,1.01-1.19,1.89-1.74,2.87-1.74,3.11-3.44,6.25-5.19,9.36-1.85,3.3-3.53,6.71-5.63,9.84-5.72,8.5-11.52,16.96-17.52,25.27-2.76,3.82-5.96,7.35-9.16,10.84-5.3,5.8-10.52,11.71-16.21,17.11-6.83,6.49-13.95,12.71-21.26,18.66-6.42,5.22-13.14,10.12-20.01,14.75-6.14,4.15-12.59,7.85-19.02,11.54-5.29,3.03-10.66,5.94-16.17,8.54-7.18,3.4-14.53,6.44-21.8,9.63-1.71.75-3.44,1.46-5.15,2.2-5.47,2.38-10.73,1.53-15.98-.84-7.48-3.38-15.05-6.59-22.54-9.97-10.1-4.56-19.78-9.91-29.09-15.9-7.8-5.03-15.5-10.24-23.06-15.62-4.36-3.11-8.44-6.63-12.5-10.14-4.13-3.57-8.09-7.33-12.08-11.07-3.09-2.89-6.26-5.73-9.12-8.84-4.93-5.35-9.69-10.85-14.45-16.36-7.46-8.64-13.84-18.09-20.06-27.64-2.55-3.92-4.68-8.12-7.01-12.19-2.19-3.84-4.63-7.55-6.52-11.53-2.82-5.97-5.46-12.04-7.8-18.21-3.66-9.64-7.14-19.34-9.73-29.34-.49-1.89-1.53-3.65-1.99-5.54-1.17-4.81-2.14-9.66-3.21-14.5-.54-2.44-1.18-4.87-1.68-7.32-1.1-5.43-2.28-10.86-3.18-16.32-1.12-6.75-1.97-13.55-3-20.32-.81-5.33-1.8-10.64-2.55-15.98-.49-3.51-.66-7.06-1.04-10.59-.39-3.62-.87-7.24-1.26-10.86-.19-1.77-.23-3.55-.37-5.33-.43-5.53-.88-11.06-1.29-16.59-.16-2.16-.25-4.32-.34-6.48-.23-5.46-.43-10.93-.66-16.39-.08-2-.22-3.99-.32-5.99-.12-2.27-.29-4.54-.32-6.8-.13-13.56-.32-27.12-.3-40.68.01-7.53.38-15.07.63-22.6.06-1.94,1.22-3,3.18-3.11.22-.01.44,0,.65,0,7.06-.11,14.13-.13,21.19-.36,5.17-.17,10.34-.6,15.51-.96,4.14-.29,8.27-.57,12.4-.99,3.35-.35,6.68-.89,10.02-1.37,1.85-.27,3.68-.62,5.53-.88,2.65-.36,5.31-.61,7.96-1.02,3.85-.6,7.69-1.23,11.52-1.96,4.7-.9,9.39-1.88,14.07-2.92,4.24-.95,8.45-2.03,12.67-3.06,3.87-.95,7.78-1.74,11.58-2.91,3.96-1.21,7.81-2.79,11.72-4.19,4.86-1.74,9.7-3.57,14.61-5.16,8.32-2.7,16.35-6.07,24.26-9.81,7.39-3.5,14.69-7.13,21.61-11.5,1.22-.77,2.36-1.7,3.68-2.24,2.35-.96,4.31.22,6.24,1.48,2.46,1.6,4.88,3.3,7.47,4.65,6.11,3.18,12.27,6.28,18.5,9.22,4.48,2.12,9.03,4.11,13.67,5.84,5.42,2.03,10.99,3.65,16.46,5.56,5.32,1.86,10.57,3.94,15.91,5.76,2.3.79,4.75,1.16,7.12,1.76,2.47.63,4.93,1.29,7.38,1.97,2.6.72,5.17,1.58,7.8,2.19,2.96.69,5.96,1.14,8.94,1.74,3.02.6,6.02,1.33,9.06,1.87,3.63.65,7.28,1.15,10.92,1.73,3.37.53,6.74,1.12,10.12,1.59,2.34.32,4.7.46,7.05.7,3.15.33,6.29.7,9.44,1.03,2.19.23,4.39.45,6.58.6,5.38.36,10.77.67,16.16.99,1.99.12,3.99.27,5.99.32,5.87.14,11.73.22,17.6.34,2.11.05,3.23,1.2,3.27,3.34.04,1.96,0,3.92,0,5.89h.33Z"/>
  </g>
  <g id="_3869A6" data-name="#3869A6">
    <path class="cls-3" d="m262.61,397.31h-4.2c-.07.79-.13,1.46-.21,2.31h-4.42c-.04.81-.07,1.44-.11,2.25h-3.16v3.89h-3.95v6.9h-5.47c-.07.79-.13,1.46-.21,2.31h-4.77v7.49h-5.26v20.91h-33.32v-6.7h-10.44v9.31h-3.01c-.54,2.16-.54,2.14-2.56,1.42-8.05-2.86-15.49-6.95-22.71-11.44-6.3-3.91-12.57-7.89-18.65-12.14-6.84-4.77-13.47-9.84-20.14-14.84-8.49-6.36-15.73-14.08-23.17-21.58-.03-.03-.04-.1-.19-.48.66-.33,1.35-.68,2.38-1.2,0-1.42.33-3.49-.06-5.4-1.26-6.11-.28-12.25-.52-18.36,0-.04.07-.08.18-.22.56-.03,1.19-.06,2-.1v-26.05h13.97v-20.96h-22.05v-15.67h-36v-5.88h-2.91v2.33c-4.94.22-9.71.43-14.63.65-5.08-11.91-9.14-24.51-12.19-37.43-1.51-6.38-2.74-12.82-3.93-19.27-.92-4.99-1.58-10.03-2.34-15.05-.87-5.71-1.8-11.41-2.58-17.13-.55-4.04-.88-8.11-1.35-12.16-.62-5.32-1.33-10.64-1.92-15.96-.31-2.73-.44-5.47-.69-8.21-.41-4.44-.86-8.88-1.28-13.32-.15-1.56-.26-3.12-.35-4.68-.23-4.26-.45-8.53-.66-12.79-.23-4.86-.46-9.73-.65-14.59-.14-3.57-.24-7.15-.33-10.73-.12-4.94-.32-9.88-.31-14.82.01-6.68.18-13.37.31-20.05.09-5.05.22-10.1.32-15.14.05-2.6,2.34-4.95,4.96-4.9,2.65.04,5.3.3,7.95.29,4.12-.02,8.25-.12,12.36-.32,4.85-.24,9.7-.52,14.52-.99,5.22-.51,10.42-1.26,15.63-1.92,5.21-.65,10.42-1.25,15.61-2,3.7-.53,7.36-1.28,11.04-1.91,3.95-.68,7.92-1.23,11.85-2.02,3.54-.71,7.03-1.65,10.54-2.51,3.61-.88,7.24-1.7,10.81-2.71,4.89-1.39,9.74-2.92,14.59-4.44,3.8-1.19,7.63-2.34,11.37-3.73,6.1-2.27,12.05-4.97,18.2-7.05,9.03-3.06,17.51-7.26,25.94-11.61,3.07-1.59,5.96-3.53,8.87-5.42.82-.53,1.4-1.43,2.37-2.45v64.72h109.41v179.24h5.48v120.05h-38.73v5.53h-5.26v3.3h-4.22v2.97h-4.28v4.55h-7.49v5.91Zm-135.16,7.86c.15.71.24,1.74.58,2.68.84,2.32,2.49,3.9,4.34,5.59,2.56,2.33,5.3,2.05,7.83,1.28,2.55-.77,4.59-2.82,5.44-5.61.28-.91.35-1.88.51-2.82.58-3.5-1.09-7.44-4.15-8.95-2.99-1.49-7.59-1.86-10.96.56-2.57,1.85-3.32,4.17-3.59,7.28Zm117.78-26.88h9.06v-3.08h-13.22v14.5h2.56v-6.34c.57-.05,1.03-.1,1.59-.15v-4.92Zm-10.58,14.08v-17.14h-3.73v17.14h3.73Z"/>
  </g>
  <g id="_35435D" data-name="#35435D">
    <path class="cls-4" d="m205.76,342.71c-3.26,0-6.2.08-9.12-.06-.76-.04-1.48-.79-2.39-1.32-.02-.41-.05-1.05-.08-1.86h-6.09c-.05-.8-.09-1.44-.14-2.25h-8.34c-.07-.95-.13-1.73-.19-2.63h-7.04v-3.29h-5.58v-3.24h-8.13c-.06-.95-.11-1.74-.17-2.64h-5.1v-3.95h-5.86c-.05-.7-.09-1.23-.14-1.93h-2.79c-.06-1.06-.11-1.95-.16-2.92h-8.66c-.06.67-.12,1.34-.19,2.14-.91.04-1.8.09-2.82.13v5.73c-.9.05-1.68.1-2.64.16v5.78h-2.58v7.88h-4.6v6.79c-.9.06-1.68.11-2.64.17v3.12c-.7.05-1.23.09-1.93.15v5.21c-.26.15-.36.26-.44.24-3.03-.77-4.17,1.3-5.43,3.43-4.57,7.77-9.23,15.49-13.82,23.25-.28.48-.28,1.12-.41,1.69l.38.17c-1.09,1.04-2.18,2.08-3.47,3.32-20.45-21.34-36.81-45.48-48.62-72.94,4.06-.7,5.97-4.14,8.93-6.1,4.18-2.76,8.26-5.69,12.53-8.31,1.75-1.07,3.06-2.01,2.56-4.28-.1-.46-.01-.96-.01-1.62h3.19c.05-.81.09-1.44.14-2.22h6.37c-.36-1.21-.59-2.27-.99-3.25-.32-.79-.24-1.18.62-1.44,5.48-1.71,10.94-3.46,16.42-5.16.76-.24,1.58-.38,2.37-.36,2.38.05,3.76-1.25,4.68-3.23,1.14-2.46,1.73-5,1.23-7.74-.23-1.26-.33-2.57-.31-3.85,0-.41.49-1.06.89-1.19,4.19-1.39,8.56-1.27,12.84-.94,3.47.27,6.89,1.31,10.33,2,1.46.29,2.93.56,4.4.84,2.33.45,4.7.77,6.99,1.37,2.12.55,3.82,1.85,5.23,3.57,2.53,3.06,5.07,6.11,7.75,9.03,3.98,4.33,8.15,8.49,12.11,12.84,5.3,5.82,11.66,9.71,19.27,11.91,5.71,1.65,11.19,4.07,16.78,6.15.2.07.38.22.58.25q2.83.51,2.83,3.34c0,5.18-.13,10.36.05,15.53.1,3.16.67,6.3,1.02,9.45.11.95.22,1.9.35,3.09Z"/>
    <path class="cls-4" d="m292.04,299.35c-.71-.37-1.31-.47-1.5-.8-1.7-3.05-3.56-6.05-4.93-9.26-1.91-4.46-3.95-8.89-4.47-13.86-.29-2.78-1.18-5.5-1.91-8.22-.26-.95-.86-1.8-1.31-2.69-.68-1.33-.48-1.94,1-2.23,2.14-.42,4.31-.83,6.48-.95,4.11-.23,8.24-.27,12.36-.35.79-.01,1.59.28,2.38.26.71-.02,1.41-.27,2.21-.44.06.27.14.67.24,1.12,1.14-.22,2.24-.39,3.31-.63,2.86-.65,5.49.19,8.07,1.22,3.06,1.22,3.48,2.01,3.54,5.38.04,2.21.16,4.42.33,6.62.09,1.15.81,1.59,2.02,1.52,5.35-.3,9.9,1.79,14.08,4.9,1.03.77,2.04,1.56,3.09,2.31.24.17.59.3.88.27,3.57-.31,6.83,1.16,10.24,1.78,4.86.88,8.94,3.69,13.39,5.59.64.27.93,1.31,1.47,1.92,3.35,3.79,2.14,8.13,1.54,12.4-.31,2.22-.69,4.44-.93,6.67-.48,4.45-1.57,8.71-3.85,12.6-.91,1.55-1.79,3.13-2.75,4.65-.71,1.13-1.39,2.32-2.31,3.25-2.79,2.84-5.68,5.59-8.58,8.32-.52.49-1.29.7-1.92,1.03.13.9.25,1.79.31,2.21.72.94,1.34,1.55,1.71,2.29.42.85.47,1.89.93,2.71.63,1.13.24,2.18-.3,2.97-2.09,3.07-4.36,6.01-6.53,9.03-1.21,1.68-2.31,3.45-3.57,5.09-1.42,1.86-2.97,3.61-4.44,5.42-1.53,1.87-2.95,3.84-4.59,5.62-1.58,1.72-3.36,3.24-5.02,4.82-3.73-3.26-7.36-6.45-11-9.63-.12.12-.23.23-.35.35-.01-.26-.13-.56-.03-.76,1.1-2.21.67-3.95-1.26-5.55-.8-.66-1.19-1.86-1.66-2.86-.55-1.18-1.14-2.16-2.39-2.87-.78-.44-1.09-1.75-1.56-2.69-.34-.7-.58-1.45-.88-2.17-.41-.96-.76-1.94-1.27-2.85-.51-.91-1.32-1.66-1.75-2.6-1.17-2.49-2.1-5.1-3.34-7.56-1.58-3.12-3.26-6.19-5.1-9.16-1.48-2.4-3.45-4.51-4.83-6.95-1.47-2.62-2.49-5.48-3.7-8.24-.08-.19-.02-.48-.14-.62-2.63-3-.14-4.94,1.49-7,.97-1.23,2.35-2.18,3.12-3.5,1.51-2.58,2.73-5.34,4-7.9Z"/>
    <path class="cls-4" d="m165.18,203.47v-23.82h17.51v3.08h11.08c.07.95.12,1.74.18,2.6h8.5c.68-2.08,1.37-2.31,4.45-1.42.25.07.49.2.65.26-.31,4.93-.52,9.86-.96,14.76-.51,5.78.05,11.46,1.29,17.09.17.78.02,1.33-1,1.46-1.1.14-2.17.51-3.45.83-.3-1.01-.6-2.03-.94-3.16h-11.87v-5.19h-14.68v-6.51h-10.77Z"/>
  </g>
  <g id="_FFFFFF" data-name="#FFFFFF">
    <path class="cls-1" d="m321.97,330.12c1.63-1.82,3.14-3.43,4.58-5.11,2-2.33,3.5-4.93,4.44-7.9,1.3-4.1,2.78-8.15,4.19-12.23-2.38-.43-4.43-.12-6.33,2.02-4.14,4.67-8.9,8.71-14.09,12.2-.87.58-1.87,1.06-2.88,1.32-1.93.5-3.01-.96-4.18-2.11-4.57-4.45-9.9-7.75-15.77-10.14-2.76-1.12-2.81-.99-2.86-3.99,0-.37-.05-.74-.06-.84,1.02-1.14,1.99-2.12,2.86-3.19,3.41-4.14,6.8-8.3,10.18-12.47.22-.27.41-.66.41-.99.02-6.59.02-13.18.02-19.39-6.95.6-13.81,1.19-20.82,1.79v20.91h5.02v17.96h-4.08c-.05,1.07-.1,1.96-.15,2.97h-3.35c-.54,2.29.14,4.32.69,6.38,2.12,7.88,5.23,15.37,9.41,22.36,3.09,5.17,6.52,10.14,9.87,15.16,1.23,1.85,2.64,3.59,4.24,5.75-5.91,2.91-11.75,5.63-17.44,8.64-5.4,2.86-10.71,5.9-15.91,9.1-6.54,4.02-13.03,8.16-19.37,12.49-5.12,3.49-9.95,7.4-14.97,11.04-3.11,2.26-6.41,4.26-9.48,6.56-3.77,2.83-7.4,5.84-11.07,8.8-1.25,1-2.43,2.09-3.92,3.39.14-2.16.28-4.02.37-5.88.04-.92.03-1.85-.02-2.77-.04-.69-.24-1.38-.25-2.07-.13-6.79-.18-13.59-.35-20.38-.14-5.3-.45-10.6-.63-15.9-.24-6.99-.42-13.98-.67-20.97-.1-2.69-.3-5.38-.47-8.28,1.07,0,1.87,0,2.66,0,8.31-.03,16.5-1.01,24.34-3.84,4.26-1.53,8.38-3.43,12.52-5.27,6.76-3,13.06-6.8,18.98-11.23.77-.58,1.49-1.24,2.24-1.84,1.39-1.11,2.11-2.41,1.91-4.33-.37-3.45-.5-6.94-.73-10.41-.21-.08-.41-.15-.62-.23-1.05.83-2.11,1.66-3.16,2.5-5.16,4.09-10.64,7.69-16.4,10.89-7.12,3.95-14.53,7.23-22.35,9.47-3.87,1.11-7.91,1.66-11.88,2.41-.42.08-.91-.22-1.42-.36v-4.86c1.56-.92,3.82.79,5.34-1.47.53-.1,1.41-.28,2.36-.46.05-.58.09-1.11.14-1.75.47-.09.97-.19,1.64-.32-.72-2.52.77-3.47,2.73-4.6,3.79-2.17,7.3-4.83,10.98-7.19,2.1-1.35,4.34-2.47,6.47-3.77.86-.53,1.67-1.18,2.4-1.89,3.8-3.65,7.58-7.33,11.35-11.02.69-.67,1.36-1.41,1.84-2.24.27-.46.23-1.17.16-1.75-.06-.51-.36-.99-.54-1.49q-1.04-2.87-4.12-2.87c-2.11,0-4.22,0-6.45,0v2.86c-.89.05-1.68.1-2.58.15v3.45h-3.62v3.61c-1.18.05-2.18.1-3.25.15-.04.62-.08,1.15-.12,1.8h-3.66c-.13.59-.24,1.08-.37,1.69h-4.7v2.91h-11.09v3.33c-2.44,0-4.71-.09-6.98.03-1.98.1-3.95.42-6.39.7-.05-3.84-.04-7.57-.15-11.29-.09-3.02-.3-6.04-.47-9.06-.01-.26-.14-.52-.15-.79-.12-2.98-.26-5.95-.33-8.93-.14-6.36-.21-12.71-.34-19.07-.08-3.74-.38-7.49-.28-11.22.13-4.63.74-9.24.81-13.86.02-1.32-.78-3.02-1.77-3.92-2.4-2.2-5.52-3.25-8.49-4.58-4.35-1.95-8.45-4.48-12.58-6.91-2.99-1.75-5.83-3.75-8.76-5.61-6.39-4.06-12.86-8.01-19.17-12.19-4.14-2.74-8.04-5.84-12.09-8.72-.8-.57-1.78-.89-2.68-1.32-.09-.04-.26.03-.32-.03-2.49-2.59-5.73-1.29-8.82-1.69v-4.13h-26.49v-10.43h10.35v-3.91h15.01v3.77c.81.05,1.44.09,2.25.14v3.12h6.66c1.8,1.77,3.14,3.23,4.62,4.53,2.63,2.3,5.24,4.63,8.03,6.73,6.06,4.57,11.98,9.38,18.4,13.39,7.55,4.72,15.55,8.75,23.4,13,3.76,2.04,7.61,3.93,11.43,5.86.42.21.91.38,1.37.38,3.32.03,6.65.02,10.15.02v-5.19h3.95v-3.57h7.22v-4.28h9.78v-4.61h6.57v-4.22h4.53c.05-.81.09-1.44.14-2.25h4.73v-15.7h-26.36v3.06h-19.32c0-.66,0-1.3,0-1.94,0-15.75.08-31.51-.05-47.26-.04-5.5-.61-10.99-.94-16.49-.09-1.51-.23-3.01-.32-4.52-.12-2.05-.38-4.11-.3-6.15.27-7.03.3-14.08,2.19-20.96.97-3.53,1.27-7.2,1.09-10.89-.07-1.34-.5-1.8-1.96-1.46v4.4c-.17,0-.35,0-.52,0,1.54-22.23.44-44.48.89-66.98,2.48,3.46,6.04,5.07,9.4,6.85,5.44,2.87,10.94,5.63,16.53,8.18,5.4,2.46,10.91,4.67,16.43,6.87,3.44,1.37,6.97,2.54,10.47,3.76,3.8,1.33,7.61,2.66,11.44,3.91,4.29,1.4,8.6,2.77,12.94,4.02,4.22,1.22,8.46,2.36,12.73,3.4,5.63,1.37,11.29,2.64,16.95,3.87,1.3.28,2.69.16,4.01.39,6.9,1.16,13.78,2.49,20.7,3.54,4.98.75,10.02,1.13,15.03,1.69,4.69.53,9.37,1.11,14.07,1.61,1.82.19,3.66.26,5.49.34,2.87.13,5.74.22,8.6.34,2.32.1,4.65.31,6.97.3,3.2-.02,6.39-.24,9.59-.29,2.86-.05,5.1,2.23,5.13,5.06.1,9.14.2,18.27.33,27.41.07,4.67.3,9.33.3,14,0,5.76-.15,11.52-.32,17.27-.14,4.81-.38,9.62-.65,14.43-.28,4.95-.61,9.91-.98,14.85-.39,5.26-.83,10.52-1.31,15.77-.5,5.4-1.06,10.8-1.63,16.19-.51,4.75-1.03,9.49-1.64,14.23-.58,4.51-1.29,9-1.92,13.51-.58,4.19-1.07,8.39-1.68,12.58-.6,4.12-1.24,8.25-2,12.35-.89,4.88-1.84,9.75-2.91,14.58-1.27,5.72-2.39,11.5-4.15,17.07-2.83,8.93-6.01,17.74-9.28,26.52-1.51,4.04-3.57,7.87-5.38,11.79-2.05,4.43-4.02,8.91-6.17,13.29-1.65,3.37-3.48,6.65-5.31,9.93-2.28,4.08-4.58,8.15-6.99,12.16-1.47,2.44-3.19,4.73-4.72,7.14-.52.82-.89.78-1.44.12-5.7-6.83-12.39-12.42-20.23-16.68-1.56-.85-2.76-2.36-4.14-3.58Z"/>
    <path class="cls-1" d="m305.1,366.47c.58.95,1.18,1.72,1.54,2.59.5,1.2,1.03,1.71,1.89.52,3.58,3.34,7.06,6.6,10.71,10.01-1.3,1.09-2.21,1.85-3.24,2.71.99.84,1.74,1.48,2.54,2.16-1.49,2.93-3.02,5.69-5.59,7.86-2.45,2.06-4.51,4.59-6.88,6.75-2.72,2.48-5.57,4.81-8.4,7.17-3.05,2.54-6.11,5.08-9.22,7.54-2.75,2.18-5.52,4.34-8.39,6.35-4.16,2.91-8.34,5.81-12.66,8.46-6.12,3.76-12.28,7.47-18.6,10.87-5.58,3-11.37,5.62-17.13,8.27-4.73,2.17-9.56,4.12-14.32,6.22-3.11,1.37-6.16,2.85-9.27,4.21-.52.23-1.29.29-1.79.08-7.74-3.21-15.43-6.56-23.21-9.7-2.46-.99-3.58-2.96-4.85-4.98-4.36-6.96-8.58-14.01-13.18-20.8-3-4.42-6.52-8.5-9.9-12.66-2.97-3.65-6.03-7.22-9.14-10.76-3.19-3.63-6.49-7.16-9.72-10.75-2.09-2.32-4.13-4.67-6.25-7.07,1.43-1.02,2.72-1.94,4.15-2.95.66.92,1.15,1.91,1.9,2.61,3.63,3.4,7.32,6.72,11,10.07.08.07.15.15.24.22,4.74,4.09,9.52,8.15,14.23,12.28,4.95,4.34,9.84,8.74,14.76,13.11,3.91,3.48,7.72,7.07,11.76,10.38,2.92,2.4,6.14,4.45,9.24,6.64,1.35.96,2.71,1.9,4.09,2.8.34.22.86.83,1.13-.2.05-.18.86-.24,1.31-.23,4.99.09,9.98.21,14.98.31.54.01,1.09,0,1.77,0-.32-.64-.59-1.19-.9-1.8,7.05-5.61,14.04-11.18,21.05-16.75,7.32-5.81,14.82-11.41,21.92-17.47,4.64-3.96,8.76-8.56,13.05-12.93,5.6-5.71,11.59-10.91,18.53-14.94,3.6-2.09,7.22-4.14,10.87-6.23Z"/>
    <path class="cls-1" d="m135.87,307.7c-1.39-.44-2.86-.9-4.3-1.35.2-.73.37-1.38.6-2.23-.63.1-1.07.17-1.64.26-.04-1.87-.77-3.24-3.3-3.24,3.47-9.95,6.87-19.68,10.26-29.41.12-.35.22-.71.35-1.14-3.4-1.81-7.2-2.28-10.92-2.34-3.72-.07-7.37-1.87-11.37-.64-.13-.2-.4-.62-.7-1.09-.2.02-.41.02-.61.06-2.36.45-3.91,1.62-3.97,4.26-.05,2.23-1.56,3.79-2.74,5.47-1.94,2.75-4.11,5.35-5.95,8.16-1.75,2.68-4.56,3.28-7.21,4.25-4.76,1.73-9.56,3.29-13.85,6.14-1.5,1-3.4,1.38-5.11,2.08-.68.28-1.31.7-1.99.98-7.02,2.92-12.82,7.66-18.62,12.39-2.43,1.98-4.6,4.28-7.15,6.68-1.75-3.88-3.82-7.92-5.33-12.15-.49-1.38.47-3.28.77-4.93,2.3.37,4.78-.88,6.01-2.79.21-.33.64-.56,1.01-.75,7.23-3.63,14.45-7.29,21.71-10.86,7.41-3.64,15.3-5.88,23.35-7.55.63-.13,1.26-.22,1.89-.35,2.04-.42,4.91-3.52,4.89-5.64-.03-2.4-.48-4.8-.58-7.21-.02-.49.57-1.36,1.01-1.47,2.56-.6,4.97-1.47,7.09-3.08.49-.38,1.15-.53,1.87-.85.32.89.62,1.74.88,2.45,2.31-.39,4.44-.96,6.6-1.04,1.49-.06,2.99.63,4.51.85,2.6.38,5.21.68,7.82.95,2.56.27,5.13.48,7.95.74-1.21,2.08.02,2.41,1.63,2.93,2.89.94,5.68,2.22,8.56,3.39-.92,2.77-2.26,5.51-2.71,8.39-.97,6.09-2.77,11.93-4.72,17.74-.71,2.1-1.89,4.05-2.9,6.05-.98,1.93-2,3.84-3.08,5.9Z"/>
    <path class="cls-1" d="m169.32,119.35h5.91v-3.57h4.16c.07-.78.13-1.46.2-2.23h8.66v10.79c-4.02.84-7.32,3.11-10.51,5.47-4.95,3.66-9.81,7.45-14.59,11.32-3,2.42-5.87,5.02-8.67,7.67-4.54,4.3-8.98,8.69-13.43,13.09-1.46,1.44-2.8,3.01-4.21,4.51-.85.9-1.74.9-2.84.31-.66-.35-1.54-.29-2.55-.46v-9.14c1.47-.84.77-2.31,1.06-3.68h3.46v-5.91h5.2v-6.57h6.57v-4.87h4.93v-4.61h5.2v-4.55h5.85v-3.3h5.59v-4.28Z"/>
    <path class="cls-1" d="m100.62,170.81v10.23h-10.96v-10.23h10.96Z"/>
  </g>
  <g id="_101416" data-name="#101416">
    <path class="cls-5" d="m12.18,48.71c4.66,0,9.33.08,13.99-.03,3.94-.09,7.88-.38,11.81-.64,4.52-.29,9.04-.54,13.54-1,5.11-.53,10.2-1.27,15.3-1.92,5.1-.65,10.21-1.21,15.29-2.01,4.53-.71,9.02-1.68,13.51-2.58,5.64-1.13,11.33-2.1,16.9-3.53,10.36-2.65,20.67-5.48,30.68-9.34,7.05-2.72,14.31-4.89,21.42-7.45,3.3-1.19,6.51-2.66,9.71-4.13,4.57-2.09,9.16-4.15,13.61-6.48,4.68-2.45,9.22-5.17,13.77-7.85,4.2-2.48,8.4-2.24,12.45.09,7.96,4.58,15.89,9.2,24.43,12.66,7.41,3,14.63,6.5,22.15,9.18,10.63,3.78,21.39,7.23,32.22,10.38,7.55,2.2,15.3,3.78,23,5.46,6.15,1.34,12.34,2.49,18.53,3.57,3.48.61,7.01.91,10.52,1.36,4.14.53,8.28,1.13,12.43,1.59,2.83.32,5.69.47,8.53.69,5.58.43,11.17.86,16.75,1.29.16.01.33.01.49.01,5.54.11,11.08.17,16.61.35,2.52.08,5.06.29,7.55.68,3.5.55,6.38,4.19,6.58,8.1.25,4.97.55,9.94.64,14.91.18,10.44.3,20.89.33,31.33.01,6.68-.14,13.37-.32,20.05-.13,4.76-.4,9.51-.64,14.26-.19,3.83-.41,7.66-.65,11.48-.31,4.79-.57,9.58-1,14.36-.45,5.08-1.09,10.14-1.6,15.21-.38,3.8-.61,7.62-1.01,11.41-.48,4.48-1.05,8.94-1.62,13.41-.52,4.14-.97,8.3-1.66,12.41-1.55,9.21-3.08,18.43-4.9,27.58-1.62,8.15-3.62,16.22-5.44,24.32-2.25,10.04-5.1,19.91-8.62,29.57-2.17,5.95-4.59,11.82-7.19,17.6-3.12,6.92-6.36,13.81-9.9,20.52-2.83,5.37-6.08,10.55-9.36,15.67-3.48,5.44-7.08,10.81-10.88,16.02-3.35,4.59-7.05,8.91-10.59,13.36-6.65,8.38-14.08,16.05-21.83,23.39-4.69,4.44-9.73,8.5-14.61,12.73-9.15,7.94-19.11,14.8-29.28,21.35-6.18,3.98-12.59,7.63-19.02,11.23-4.81,2.69-9.71,5.25-14.73,7.52-8.3,3.75-16.7,7.3-25.12,10.79-5.75,2.39-11.47,1.8-17.09-.68-8.25-3.63-16.61-7.04-24.73-10.92-6.78-3.25-13.43-6.83-19.91-10.66-7.58-4.47-15.04-9.18-22.31-14.12-5.83-3.96-11.49-8.22-16.91-12.73-6.42-5.35-12.58-11.03-18.72-16.71-3.89-3.61-7.74-7.3-11.24-11.28-5.46-6.21-10.83-12.52-15.83-19.1-5.49-7.22-10.65-14.72-15.71-22.25-2.58-3.85-4.68-8.02-6.93-12.09-2.33-4.21-4.82-8.35-6.79-12.73-3.32-7.38-6.49-14.85-9.35-22.42-2.59-6.87-4.61-13.95-6.99-20.9-3.44-10.05-5.64-20.42-7.8-30.79-1.2-5.79-2.45-11.58-3.52-17.4-.72-3.94-1.12-7.95-1.72-11.92-.66-4.33-1.41-8.65-2.08-12.98-.43-2.8-.81-5.62-1.17-8.43-.44-3.4-.89-6.8-1.27-10.21-.29-2.57-.45-5.15-.7-7.72-.41-4.22-.86-8.44-1.28-12.66-.14-1.45-.26-2.9-.35-4.35-.23-4.04-.45-8.09-.66-12.14-.33-6.42-.67-12.84-.98-19.27-.13-2.76-.25-5.52-.32-8.28-.13-5.05-.27-10.09-.33-15.14C.16,98.09,0,86.34,0,74.59c0-5.46.27-10.93.66-16.39.32-4.46,1.63-7.3,6.22-8.66,1.67-.5,3.51-.45,5.27-.65,0-.06.01-.12.02-.18Zm397.13,15.29c-.08,0-.17,0-.25,0,0-1.25.09-2.52-.02-3.76-.31-3.57-1.44-5.7-4.8-5.95-4-.29-8.02-.22-12.03-.38-4.1-.17-8.2-.41-12.3-.64-5.77-.32-11.53-.67-17.3-.97-1.58-.08-3.19.08-4.75-.12-4.18-.54-8.34-1.27-12.51-1.83-2.45-.33-4.94-.36-7.37-.76-3.72-.62-7.41-1.48-11.12-2.19-4.13-.79-8.27-1.54-12.4-2.3-2.98-.55-5.99-.99-8.95-1.67-2.71-.62-5.36-1.51-8.04-2.25-2.5-.69-5.02-1.35-7.54-1.99-2.32-.59-4.7-.96-6.95-1.73-5.38-1.85-10.69-3.93-16.05-5.84-7.05-2.52-14.19-4.83-21.18-7.5-4.37-1.67-8.52-3.89-12.82-5.77-7.4-3.23-14.49-7.05-21.41-11.2-1.37-.82-2.69-2.42-4.02-2.4-1.41.02-2.77,1.59-4.19,2.41-3.79,2.2-7.51,4.53-11.41,6.5-5.52,2.78-11.14,5.4-16.8,7.88-4.28,1.88-8.66,3.5-13.05,5.12-4.64,1.71-9.34,3.28-14.01,4.89-6.33,2.19-12.63,4.46-18.99,6.52-4.63,1.5-9.32,2.81-14.03,4.04-2.81.73-5.7,1.12-8.55,1.69-4.06.83-8.1,1.75-12.18,2.51-4.61.86-9.25,1.58-13.88,2.38-1.68.29-3.33.75-5.01.95-2.56.31-5.15.37-7.71.72-4.99.69-9.93,1.65-14.97,1.94-3.87.22-7.72.7-11.58.94-4.69.29-9.4.51-14.1.66-5.32.17-10.64.21-15.96.35-3.17.09-5.09,1.91-5.23,5.07-.27,6.28-.66,12.56-.63,18.84.07,11.68-.55,23.36.57,35.03.27,2.82,0,5.69.05,8.53.06,2.98.2,5.95.32,8.93.21,5.41.43,10.82.66,16.22.09,2.16.18,4.32.34,6.48.41,5.53.87,11.06,1.29,16.59.14,1.78.18,3.56.37,5.33.39,3.62.87,7.23,1.26,10.86.38,3.53.54,7.08,1.04,10.59.75,5.34,1.74,10.65,2.55,15.98,1.03,6.77,1.88,13.56,3,20.32.91,5.46,2.07,10.89,3.18,16.32.49,2.39,1.15,4.75,1.68,7.14,1.11,4.98,2.05,10.01,3.31,14.95.91,3.6,2.17,7.11,3.34,10.64,1.51,4.53,3.08,9.05,4.66,13.56,1.24,3.55,2.41,7.15,3.85,10.62,2.04,4.93,4.31,9.76,6.45,14.65.53,1.21.82,2.54,1.43,3.7.83,1.58,1.93,3.02,2.78,4.59,1.49,2.75,2.78,5.62,4.33,8.34,1.71,3.01,3.54,5.97,5.46,8.86,6.97,10.53,13.99,21.02,22.34,30.54,4.16,4.74,8.28,9.53,12.57,14.15,2.68,2.88,5.58,5.56,8.49,8.2,5.84,5.28,11.55,10.73,17.69,15.64,7.05,5.64,14.43,10.87,21.81,16.07,3.96,2.8,8.13,5.33,12.36,7.7,8.01,4.48,16,9.04,24.25,13.05,8.43,4.1,17.18,7.54,25.76,11.35,2.86,1.27,5.87,1.59,8.63.48,8.46-3.39,16.87-6.92,25.14-10.74,6.45-2.98,12.81-6.24,18.96-9.8,7.94-4.6,15.8-9.37,23.38-14.53,6.98-4.75,13.68-9.94,20.23-15.28,6.09-4.98,11.87-10.35,17.67-15.67,2.65-2.44,5.08-5.13,7.51-7.8,4.46-4.91,9.03-9.75,13.2-14.9,4.81-5.94,9.39-12.08,13.8-18.32,4.98-7.04,9.82-14.19,13.69-21.94,1.68-3.37,3.72-6.56,5.39-9.93,2.15-4.35,4.17-8.78,6.11-13.24,1.7-3.9,3.32-7.84,4.78-11.83,1.44-3.93,2.64-7.95,3.91-11.94,1.57-4.96,3.25-9.9,4.62-14.93,1.52-5.6,2.77-11.27,4.07-16.93,1.32-5.76,2.68-11.52,3.78-17.32,1.05-5.56,1.8-11.18,2.68-16.78.65-4.12,1.32-8.23,1.93-12.35.39-2.65.68-5.31,1.02-7.97.42-3.18.91-6.36,1.26-9.55.31-2.84.39-5.7.7-8.53.48-4.48,1.13-8.94,1.59-13.41.42-4.12.72-8.26.99-12.4.37-5.66.67-11.32.99-16.98.22-3.83.48-7.65.64-11.48.17-4.17.25-8.35.34-12.53.04-1.75-.03-3.51.01-5.27.09-4.07.33-8.13.3-12.2-.07-11.68-.25-23.35-.38-35.03Z"/>
    <path class="cls-5" d="m106.54,170.96c6.62-2.67,13.45-4.82,20.95-3.9,0-.77.03-1.75-.02-2.72-.02-.34-.13-.89-.36-.99-1.64-.73-1.13-1.99-.76-3.1,1.77-5.31,4.21-10.3,7.96-14.49,3.8-4.24,7.57-8.55,11.77-12.36,7.34-6.66,15.41-12.43,23.86-17.62,4.32-2.65,8.68-5.24,13.14-7.65,1.44-.78,3.22-.92,4.97-1.38,6.58-15.3,13.33-30.98,20.11-46.75,7.87,15.45,15.03,31.31,21.69,47.52,3.39-1.11,5.98,1.24,8.62,2.8,6.06,3.59,12.05,7.33,17.81,11.38,5.08,3.57,9.9,7.51,14.65,11.51,3.15,2.65,6.09,5.58,8.92,8.57,4.77,5.05,8.8,10.61,10.9,17.35.24.76.49,1.52.64,2.3.07.37.06,1.02-.13,1.12-2.3,1.21-.82,3.19-1.29,4.79,7.71-.93,14.65,1,21.13,3.85,1.58-1.64,2.88-3.49,4.63-4.7,4.48-3.09,10.96-2.07,15.16,1.24,6.11,4.82,3.09,16.05-2.74,18.65-4.28,1.91-8.26,1.68-12.01-.64-2.26-1.4-4.49-1.09-6.71-.92-3.23.26-6.43,1.01-9.64,1.55-4.16.7-8.32,1.41-12.76,2.16-.29,3.1-.61,6.62-.95,10.13-.42,4.44-.87,8.88-1.28,13.32-.14,1.5-.24,3.01-.35,4.51-.44,5.86-.87,11.71-1.3,17.57-.13,1.78-.19,3.56-.34,5.33-.41,4.82-.84,9.64-1.3,14.46-.14,1.43-.43,2.85-.55,4.28-.02.26.48.82.7.8,1.81-.13,3.73-.06,5.4-.64,4.26-1.48,8.62-2.04,13.08-2.25.27-.01.62.06.8-.08,2.26-1.69,4.43-.55,6.71.01,2.57.63,5.22.93,7.83,1.37,3.28.55,5.56,2.2,5.81,5.73.11,1.64-.2,3.31-.33,4.96-.03.32-.17.62-.19.94-.26,3.68-.07,3.79,3.89,4.72,4.19.99,8.42,1.94,12.48,3.35,6.79,2.34,13.53,4.86,20.16,7.62,4.01,1.67,7.78,3.92,11.64,5.94,2.36,1.23,4.66,2.56,7.02,3.79.84.44,1.27.8.77,1.85-.83,1.72-1.5,3.52-2.22,5.3-.43,1.07-.89,1.29-1.99.56-5.82-3.82-11.91-7.15-18.3-9.9-4.1-1.77-8.19-3.56-12.29-5.34-.19-.08-.41-.07-.89-.15,0,.71-.02,1.33,0,1.95.23,6.56-.86,12.96-2.75,19.2-1.96,6.49-4.89,12.61-8.4,18.41-2,3.3-4.1,6.58-6.57,9.53-3.86,4.61-7.77,9.22-13.45,11.9-2.03.96-3.67,2.76-5.55,4.23,2.88,4.76,5.71,9.38,8.48,14.04,1.85,3.11,3.96,5.96,6.5,8.58,1.79,1.84,2.96,4.28,4.49,6.58-2.24,2.34-4.42,4.62-6.76,7.06-.64-2.88-1.22-5.54-1.83-8.2-.1-.45-.19-.97-.47-1.3-2.8-3.27-5.62-6.53-8.49-9.74-.22-.24-.94-.35-1.21-.18-2.77,1.7-5.59,3.35-8.23,5.24-3.46,2.48-6.74,5.21-10.16,7.76-3.47,2.59-7.07,5-10.5,7.64-2.87,2.22-5.63,4.59-8.3,7.03-5.04,4.6-9.98,9.3-14.97,13.96-4.65,4.34-9.16,8.85-14.02,12.94-4.24,3.57-8.9,6.64-13.35,9.96-1.03.77-2.02,1.62-2.94,2.53-1.56,1.55-3.48,1.94-5.58,2.03-3.01.14-6.02.58-9.03.59-2.95,0-5.95-.13-8.84-.7-1.67-.33-3.25-1.5-4.7-2.52-2.97-2.1-5.87-4.29-8.71-6.55-3.45-2.74-6.83-5.55-10.19-8.39-2.65-2.24-5.29-4.5-7.82-6.87-2.71-2.55-5.2-5.35-7.95-7.86-6.15-5.63-12.33-11.23-18.66-16.66-2.62-2.25-5.7-3.94-8.5-6-4.05-2.98-7.98-6.12-12.07-9.05-2.08-1.49-4.39-2.64-6.57-3.98-.59-.36-1.12-.82-1.7-1.25-2.53,2.9-4.96,5.97-7.7,8.75-2.61,2.65-3.08,6.11-4.19,9.35-.34.99-.61,2-1,3.32-1.75-1.91-3.31-3.56-4.78-5.28-.22-.26-.2-.92-.05-1.29.8-2.03,1.7-3.94,3.11-5.72,1.96-2.46,3.4-5.35,5.05-8.06,3.62-5.92,7.24-11.84,10.83-17.77,1.12-1.85,2.18-3.75,3.29-5.67-5.26-2.17-9.62-5.45-13.9-8.94-7.65-6.25-13.5-13.96-18.47-22.34-3.15-5.3-5.74-10.96-8.25-16.61-1.39-3.12-2.11-6.55-3.22-10.13-10.78,4.05-20.88,9.36-30.61,15.7-.95-2.37-1.83-4.57-2.71-6.76-.29-.72-.49-1.38.43-1.88,5.01-2.74,9.87-5.81,15.04-8.19,7.4-3.41,14.94-6.55,22.58-9.36,5.27-1.93,10.82-3.12,16.25-4.61.87-.24,1.78-.29,2.9-.47-.15-2.72-.27-5.36-.44-8-.31-4.94,1.86-6.76,6.36-7.64,3.73-.73,7.48-1.39,11.22-2.08.24-.04.55-.16.71-.05,2.49,1.58,5.39.8,8.04,1.44,2.68.65,5.37,1.32,8.08,1.83,1.88.35,3.81.44,5.53.62-.47-5.2-.95-10.11-1.34-15.02-.28-3.55-.42-7.11-.67-10.66-.41-5.75-.86-11.5-1.31-17.24-.31-4.03-.59-8.05-.99-12.07-.48-4.86-1.09-9.7-1.58-14.55-.1-1.02-.52-1.33-1.45-1.25-4.75.4-9.23-1.16-13.82-1.87-2.86-.44-5.82-.43-8.59-1.15-2.77-.72-4.48,1.18-6.63,1.94-4.62,1.63-8.99,1.25-12.78-1.86-2.23-1.83-3.41-4.54-3.81-7.41-.22-1.6-.16-3.3.09-4.9.64-3.99,5.78-7.74,9.82-8.29,3.72-.51,7.14.23,10.01,2.67,1.23,1.05,2.13,2.49,3.23,3.81Zm9.42,192.79c.88.25,1.58.35,2.2.63,2.71,1.26,5.52,2.36,8.05,3.91,4.73,2.9,9.47,5.84,13.87,9.2,5.53,4.22,10.72,8.88,16.06,13.34,5.24,4.37,10.54,8.67,15.71,13.12,5.6,4.81,11.16,9.68,16.6,14.68,3.47,3.18,6.68,6.65,10.04,9.95.6.58,1.34,1.29,2.09,1.4,3.18.46,6.38.83,9.59.99,1.52.08,3.06-.52,4.6-.57,1.93-.06,3.5-.66,4.86-2.05,3.8-3.87,7.53-7.82,11.53-11.47,5.65-5.15,11.48-10.1,17.29-15.07,4.53-3.87,9.15-7.65,13.74-11.46,5-4.15,9.85-8.49,15.06-12.36,5.18-3.84,10.64-7.32,16.13-10.71,2.55-1.58,5.46-2.58,8.34-3.9-8.99-14.22-17.32-28.93-23.2-45.09-.64.41-1.09.67-1.53.97-4.18,2.86-8.29,5.86-12.57,8.56-3.5,2.21-7.23,4.04-10.83,6.09-6.32,3.62-12.86,6.81-19.78,9.05-6.04,1.95-12.26,3.35-18.43,4.92-1.18.3-2.47.42-3.68.33-4.66-.36-9.31-.83-13.96-1.27-.43-.04-.86-.07-1.27-.18-3.94-1.12-7.95-2.04-11.78-3.45-4.99-1.83-9.93-3.86-14.73-6.15-4.34-2.06-8.52-4.46-12.65-6.92-4.49-2.68-8.84-5.58-13.23-8.42-1.61-1.04-3.14-2.21-4.75-3.35-5.93,16.23-14.19,30.94-23.37,45.27Zm26.76-104.95c1.45,1.31,2.95,2.54,4.32,3.91,8.54,8.5,17.02,17.05,25.58,25.52,1.44,1.43,3,2.87,4.77,3.79,3.14,1.63,6.46,2.94,9.76,4.25,5.99,2.37,12.1,4.45,17.99,7.02,2.79,1.21,5.27,1.18,7.91.1,4.67-1.91,9.3-3.91,13.99-5.78,4.19-1.67,8.56-2.95,12.62-4.88,2.31-1.1,4.32-2.99,6.19-4.82,5.1-4.98,10.05-10.11,15.07-15.19,3.71-3.76,7.21-7.77,11.21-11.18,2.23-1.9,2.87-3.44,2.68-6.42-.4-6.49.05-13.03.18-19.55.03-1.4.21-2.79.32-4.19.43-5.15.87-10.29,1.29-15.44.24-2.84.38-5.7.69-8.54.48-4.48,1.01-8.95,1.61-13.41.57-4.24,1.26-8.46,1.88-12.69.16-1.11.26-2.23.44-3.79-.71.62-1.04.89-1.35,1.17-3.27,3.04-6.36,6.31-9.85,9.08-4.38,3.49-8.98,6.72-13.67,9.79-5.49,3.59-11.15,6.93-16.79,10.28-5.92,3.52-11.93,6.87-17.85,10.39-4.78,2.85-9.82,4.57-15.45,4.13-.32-.02-.64-.08-.95-.15-4.51-.96-8.32-3.42-12.22-5.69-6.32-3.67-12.66-7.33-18.94-11.07-5.36-3.2-10.78-6.31-15.94-9.82-7.37-5.02-14.44-10.46-20.54-17.05-.13-.14-.45-.11-.72-.17,0,.77-.08,1.44.01,2.08.62,4.17,1.37,8.33,1.91,12.51.74,5.69,1.37,11.4,1.96,17.1.5,4.76.91,9.53,1.31,14.3.37,4.4.75,8.81.97,13.22.22,4.5.35,9.01.31,13.51-.03,2.55-.48,5.1-.75,7.68Zm113.6-70.5c1.03-.68,1.74-1.13,2.42-1.6,6.15-4.25,11.98-8.91,17.38-14.07,2.45-2.34,4.7-4.89,7.05-7.34,1-1.05,1.66-5.73.98-6.99-.1-.19-.21-.37-.36-.53-4.49-4.94-8.8-10.06-13.54-14.75-4.54-4.49-9.4-8.68-14.34-12.74-4-3.29-8.28-6.25-12.52-9.23-3.36-2.36-6.84-4.53-10.29-6.76-.42-.27-.94-.4-1.3-.55,0,2.11-.02,4.09,0,6.07.03,2.82-1.11,5.28-2.81,7.33-2.73,3.28-5.75,6.32-8.7,9.42-2.51,2.64-4.92,5.46-8.82,6.12v38.14c.93,0,1.58.06,2.23,0,5.07-.52,10.15-1,15.2-1.63,3.92-.49,7.82-1.2,11.73-1.77,3.65-.53,7.31-.98,10.97-1.49,1.39-.19,2.04.61,2.64,1.67.34.6.8,1.23,1.38,1.57,1.22.72,1.78,1.77,1.65,3.07-.19,1.89-.58,3.77-.96,6.07Zm-70.3-74.23c-.44.11-.78.11-1.02.27-6.65,4.45-13.48,8.67-19.89,13.44-6.55,4.87-12.95,10-18.36,16.23-3.47,4-7.22,7.76-10.66,11.78-1.01,1.19-2.71,2.11-2.57,4.09.15,2.07-.22,4.1,1.57,5.91,6.62,6.69,13.46,13.12,21.07,18.68,1.56,1.14,3.19,2.18,5.06,3.45-.23-1.32-.45-2.25-.53-3.19-.11-1.35-.64-3.01-.06-4,1.07-1.83,2.77-3.3,4.3-4.84.31-.31,1.03-.35,1.52-.29,3.34.44,6.67.92,10,1.42,3.96.59,7.92,1.23,11.88,1.83,2.91.44,5.81.88,8.73,1.27,1.94.26,3.89.41,5.96.62,0-.69,0-1.28,0-1.88,0-10.9-.07-21.8.05-32.7.03-2.69-.44-4.63-2.65-6.55-3.65-3.14-6.8-6.86-10.17-10.33-3.63-3.74-5.04-8.18-4.26-13.33.09-.58.01-1.18.01-1.9Zm114.8,232.23c1.43-1.19,2.62-2.29,3.92-3.24,5.51-4.02,10.12-8.94,14.14-14.38,2.78-3.76,5.4-7.7,7.54-11.84,2.37-4.6,4.25-9.49,6.08-14.34.84-2.22,1.28-4.64,1.52-7.01.34-3.34.39-6.71.42-10.07,0-.53-.69-1.38-1.22-1.53-4.85-1.39-9.74-2.65-14.61-3.99-.97-.27-2.18-.49-2.78-1.17-2.7-3.06-3.24-6.87-2.86-10.73.38-3.92.56-3.9-3.33-4.75-.05-.01-.12.01-.16-.01-1.34-.73-1.68.32-1.77,1.18-.4,3.69-.75,7.38-1.01,11.08-.28,4.08-.3,8.18-.74,12.24-.21,1.91-.52,4.12-3.07,4.73-.33.08-.55.62-.81.95-3.9,5.02-7.73,10.1-11.75,15.03-1.46,1.79-3.35,3.23-5.06,4.8-.65.59-1.05,1.12-.51,2.07.71,1.25,1.22,2.61,1.86,3.9,2.55,5.15,5.03,10.33,7.69,15.42,2.05,3.92,4.31,7.74,6.5,11.64Zm-158.36-78.41c-.26.8-.45,1.29-.57,1.79-1.15,4.81-2.3,9.63-3.39,14.45-.11.5.04,1.29.38,1.63,2.82,2.74,5.68,5.44,8.58,8.08,2.65,2.41,5.24,4.92,8.09,7.07,3.01,2.28,6.19,4.41,9.5,6.23,5.79,3.18,11.67,6.23,17.65,9.04,4.08,1.92,8.45,3.22,12.59,5.03,3.65,1.59,7.45,2.31,11.34,2.48,2.12.09,4.28-.31,6.4-.61,3.27-.47,6.69-.59,9.76-1.66,5.97-2.09,11.82-4.59,17.59-7.21,6.72-3.05,13.24-6.55,19.19-10.95,4.01-2.96,7.8-6.24,11.54-9.56,2.26-2.01,4.16-4.43,6.33-6.55,1.31-1.28,2.21-2.06,1.31-4.39-1.36-3.53-1.69-7.46-2.48-11.21-.24-1.13-.56-2.24-.95-3.75-.54.8-.74,1.18-1.02,1.49-4.82,5.27-9.62,10.54-14.47,15.78-2.46,2.65-5.02,5.2-7.48,7.85-4.3,4.62-9.1,8.37-15.28,10.29-5.38,1.67-10.6,3.86-15.92,5.74-3.11,1.09-6.23,2.62-9.42,2.86-3.62.27-7.48-.19-10.96-1.24-6.56-1.98-12.88-4.74-19.39-6.93-5.01-1.68-9.53-4.09-13.27-7.81-4.26-4.23-8.41-8.58-12.59-12.9-1.35-1.4-2.69-2.82-3.96-4.3-3-3.48-5.96-7.01-9.13-10.74Zm-23.76,75.39c.61-1.21,1.02-2.02,1.43-2.83,4.06-7.89,8.16-15.76,12.14-23.69,1.19-2.37,1-2.42-.87-4.34-2.35-2.4-4.72-4.8-6.96-7.31-2.12-2.39-4.05-4.95-6.13-7.38-1.65-1.92-2.26-4.75-5.01-5.73-.32-.12-.61-.64-.71-1.03-.53-2.16-1.21-4.32-1.43-6.51-.38-3.81-.48-7.65-.66-11.47-.15-3.09-.21-6.19-.41-9.28-.01-.23-.85-.63-1.26-.58-1.21.16-2.42.42-3.58.81-.41.14-.94.74-.94,1.14-.02,1.34.08,2.69.32,4.01.52,2.92-.18,5.61-1.49,8.16-.89,1.74-2.31,2.72-4.38,2.7-.84-.01-1.72.15-2.53.4-5.37,1.68-10.73,3.43-16.11,5.08-1,.31-1.2.61-.78,1.58,1.19,2.81,2.24,5.67,3.42,8.48,2.86,6.84,6.44,13.28,10.55,19.46,4.11,6.18,8.99,11.73,13.99,17.15,3.55,3.86,7.48,7.37,11.39,11.18Zm162.85-52.32c-.23.19-.43.29-.54.45-3.65,5.13-7.96,9.68-12.79,13.69-6.67,5.55-14.02,10.1-21.73,14.03-4.6,2.34-9.28,4.59-14.07,6.51-4.47,1.8-9.13,3.14-13.72,4.65-1.2.4-2.56.46-3.65,1.03-4.55,2.41-9.31,2.67-14,.97-5.85-2.12-11.54-4.68-17.28-7.09-9.22-3.87-18.15-8.3-26.36-14.02-3.77-2.63-7.49-5.42-10.83-8.57-3.08-2.9-5.63-6.36-8.42-9.57-.61-.7-1.24-1.39-1.88-2.11-1.65,2.56-3.21,4.97-4.71,7.3,2.3,3.58,4.71,7.14,8.17,9.78,4.37,3.34,8.67,6.81,13.22,9.9,3.73,2.54,7.79,4.6,11.69,6.9,7.32,4.33,14.99,7.9,23.02,10.68,3.41,1.18,6.93,2.09,10.45,2.9,3.16.73,6.39,1.55,9.6,1.59,3.66.05,7.34-.29,11.01-1.12,9.17-2.05,17.87-5.28,26.23-9.47,8.6-4.31,16.81-9.27,24.84-14.58,6.75-4.46,12.29-9.9,16.44-16.61-1.55-2.39-3.1-4.79-4.7-7.25Zm-31.52-109.03c-2.51.65-5.15,1.46-7.85,2.02-6.39,1.32-12.71,3.09-19.32,3.12-2.08.01-4.16.49-6.24.59-5.41.27-10.82.65-16.22.6-3.13-.03-6.27-.7-9.37-1.25-5.51-.97-11.01-2.02-16.5-3.15-2.28-.47-4.52-1.2-6.54-1.75.45,3.33.88,6.71,1.39,10.08.06.42.48.92.88,1.15,5.49,3.17,11.01,6.29,16.52,9.43,5.94,3.39,11.87,6.79,17.8,10.17.69.39,1.54.61,2.06,1.15,1.16,1.23,2.74,1.08,3.78.57,3.63-1.79,7.11-3.9,10.63-5.92,5.74-3.29,11.47-6.61,17.21-9.91,3.05-1.76,6.14-3.47,9.17-5.27.47-.28.94-.9,1.03-1.43.58-3.4,1.06-6.82,1.57-10.21Zm-40.4-104.33c-.2-.02-.41-.04-.61-.06-1.77,3.33-3.7,6.59-5.25,10.02-1.35,2.99-2.11,6.24-3.4,9.27-2.55,5.98-5.25,11.89-6.68,18.28-.58,2.6-.76,5.1,1.33,7.19,3.43,3.43,6.8,6.93,10.34,10.26,1.53,1.44,6.22,1.19,7.78-.26,2.73-2.52,5.42-5.09,8.04-7.73,1.07-1.09,2.02-2.35,2.8-3.66,1.35-2.28.83-4.86.11-7.06-1.72-5.25-3.83-10.37-5.9-15.5-1.81-4.49-3.8-8.9-5.66-13.36-1.02-2.44-1.93-4.92-2.88-7.38Zm-83.27,218.28c.81-2.32,1.18-4.49,2.25-6.23,2.24-3.63,2.75-7.79,4.1-11.68,1.08-3.09,1.74-6.32,2.67-9.47.56-1.89.3-2.37-1.69-2.64-1.74-.24-3.49-.48-5.22-.83-3.33-.66-6.64-1.44-9.98-2.06-.4-.07-1.25.45-1.33.81-.13.62.22,1.34.31,2.02.52,3.92,1.11,7.84,1.48,11.77.21,2.27,0,4.57.06,6.86.02.72.17,1.55.57,2.11,2.14,3.06,4.37,6.04,6.78,9.34Zm174.46-32.61c-1.46,0-2.41-.14-3.3.02-4.56.82-9.1,1.7-13.65,2.6-1.02.2-2.06.54-1.68,1.98.78,2.98,1.39,6.02,2.38,8.94,2.09,6.2,4.38,12.34,6.78,19.04,2.15-2.87,4.01-5.39,5.92-7.88.96-1.26,1.66-2.5,1.64-4.22-.04-4,.15-8,.3-12.01.04-1.17.21-2.35.44-3.51.31-1.58.74-3.14,1.17-4.97Zm-13.12-80.3c1.65-.64,3.02-1.37,4.48-1.7,5.66-1.31,11.36-2.34,17.21-2.07.79.04,1.42-.09,1-1.18-.15-.38.06-.92-.12-1.27-.21-.44-.59-.9-1.01-1.11-.5-.25-1.13-.26-1.71-.36-5.71-1.01-11.35-2.29-16.72-4.56-1.06-.45-1.36-.26-1.5.91-.45,3.69-1.05,7.35-1.63,11.35Zm-180.08-4.22c7.47.8,15.03.75,22.38,4.23-.6-4.32-1.16-8.32-1.68-12.06-7.16,1.83-13.93,3.56-20.7,5.29v2.54Zm216.25-7.83c-.89.15-1.81.23-2.68.46-1.55.41-3.73,3.07-3.65,4.55.1,1.98,1.12,3.34,3.06,3.98,3.42,1.12,5.91-.23,6.03-3.91.03-.9-.22-1.8-.3-2.71-.2-2.09-.38-2.26-2.46-2.37Zm-232.68,3.96c-.02,4.06,1.64,5.66,4.89,5.31,2.1-.22,4.4-2.34,4.25-3.92-.3-3.2-4.11-5.96-7.24-5.19-.45.11-1.08.43-1.2.79-.38,1.15-.57,2.37-.71,3.01Z"/>
    <path class="cls-5" d="m198.89,455.14c.08-1.73-.08-3.68.29-5.27.73-3.17,2.19-5.96,4.92-7.98,2.33-1.73,7.49-1.98,9.71-.16.76.62,1.14,1.72,1.64,2.63.23.41.22.96.49,1.33,2.1,2.9,1.12,6.13-.09,8.94-.15.19-1.58.72-2.59,1.18-1.68.75-3.69,1.91-5.44,2.48-.52.17-1.58.09-1.79-.15-2.37-.89-4.59-1.99-7.13-2.99Z"/>
    <path class="cls-5" d="m280.64,397.02c5.16.5,8.29,2.68,8.32,7.97.03,4.7-3.74,9.18-8.5,9.25-4.86.07-8.01-3.4-8.36-9.04-.27-4.37,3.87-8.12,8.54-8.17Z"/>
    <path class="cls-5" d="m167.4,230.48c-.24-3.35,1.69-4.95,4.86-4.85,3.01.09,4.94,1.85,4.94,4.72,0,2.85-2.12,4.78-5.28,4.77-2.86,0-4.52-1.7-4.51-4.64Z"/>
    <path class="cls-5" d="m241.6,225.97c3.41,0,4.53,1.2,4.59,4.87.03,2.24-2,4.18-4.49,4.27-2.37.09-5.2-2.42-5.29-4.67-.09-2.44,2.27-4.47,5.19-4.47Z"/>
    <path class="cls-5" d="m194.53,231.39c.39,2.53-1.97,4.53-3.83,4.68-2.28.19-5.68-3.04-5.64-5.23.04-2.29,2.09-3.89,4.98-3.88,2.89,0,4.49,1.58,4.49,4.44Z"/>
    <path class="cls-5" d="m161.5,229.43c.12,2.31-1.48,4.35-4.72,4.59-2.21.16-4.75-2.26-4.75-4.3,0-2.53,2.34-4.42,5.46-4.41,2.57,0,4.01,1.49,4.01,4.11Z"/>
    <path class="cls-5" d="m190.05,244.29c2.79-.47,4.37,2.17,4.46,4.17.1,2.1-2.23,4.43-4.5,4.29-2.79-.17-4.85-1.21-4.99-4.24-.11-2.3,2.43-4.45,5.03-4.22Z"/>
    <path class="cls-5" d="m228.21,230.87c0,2.48-2.56,4.88-5.21,4.9-1.74,0-3.97-2.26-3.91-4.16.09-2.77,1.9-4.58,4.38-4.59,2.79-.02,4.86,1.43,4.74,3.86Z"/>
    <path class="cls-5" d="m189.57,267.49c-2.37-.07-4.89-2.22-4.83-4.12.07-2.15,2.62-4.74,4.62-4.68,2.16.06,4.96,2.88,4.82,4.84-.13,1.91-2.59,4.02-4.61,3.96Z"/>
    <path class="cls-5" d="m171.95,243.3c2.4,0,4.19,1.82,4.33,4.1.14,2.36-2.46,4.45-4.41,4.41-2.38-.05-4.5-1.69-4.46-3.7.06-3.08,1.5-4.62,4.54-4.81Z"/>
    <path class="cls-5" d="m255.95,225.64c3.73.1,5.34,1.44,5.29,3.94-.04,2.36-1.88,4.16-4.34,4.23-2.12.06-4.65-1.79-4.51-4.41.14-2.55,1.16-3.76,3.56-3.76Z"/>
    <path class="cls-5" d="m223.72,252.45c-2.34,0-4.3-1.77-4.33-3.87-.04-2.51,1.77-4.22,4.43-4.18,2.47.03,4.77,1.9,4.59,3.97-.22,2.6-1.27,3.97-4.7,4.08Z"/>
    <path class="cls-5" d="m224.31,259c2.19,0,4.42,2.1,4.52,4.25.08,1.86-2.55,4.18-4.72,4.16-2.59-.03-4.31-2-4.24-4.87.04-1.61,2.46-3.54,4.44-3.54Z"/>
    <path class="cls-5" d="m241.74,251.47c-2.34,0-4.04-1.72-4.04-4.07,0-2.37,1.58-3.78,4.2-3.76,2.6.02,4.36,1.82,4.22,4.56-.09,1.76-1.94,3.45-4.38,3.28Z"/>
  </g>
</svg>